<mxfile host="Electron" modified="2024-07-04T21:26:02.033Z" agent="Mozilla/5.0 (Macintosh; Intel Mac OS X 10_15_7) AppleWebKit/537.36 (KHTML, like Gecko) draw.io/24.6.4 Chrome/124.0.6367.207 Electron/30.0.6 Safari/537.36" etag="YvHo07F1-agaYhr_E2Fk" version="24.6.4" type="device">
  <diagram name="Seite-1" id="JPyJ2l5VM5GPgGPYQFnu">
    <mxGraphModel dx="1304" dy="885" grid="1" gridSize="10" guides="1" tooltips="1" connect="1" arrows="1" fold="1" page="1" pageScale="1" pageWidth="827" pageHeight="1169" background="#ffffff" math="0" shadow="0">
      <root>
        <mxCell id="0" />
        <mxCell id="1" parent="0" />
        <mxCell id="Ab7Qm6pMcHjsO1RCqllz-1" value="" style="rounded=0;whiteSpace=wrap;html=1;fillColor=#eeeeee;strokeColor=#36393d;" vertex="1" parent="1">
          <mxGeometry x="120" y="80" width="770" height="730" as="geometry" />
        </mxCell>
        <mxCell id="Ab7Qm6pMcHjsO1RCqllz-2" value="" style="image;sketch=0;aspect=fixed;html=1;points=[];align=center;fontSize=12;image=img/lib/mscae/Docker.svg;" vertex="1" parent="1">
          <mxGeometry x="130" y="760" width="50" height="41" as="geometry" />
        </mxCell>
        <mxCell id="Ab7Qm6pMcHjsO1RCqllz-5" value="traefik" style="sketch=0;outlineConnect=0;html=1;whiteSpace=wrap;fontSize=12;fontStyle=0;shape=mxgraph.aws4.group;grIcon=mxgraph.aws4.group_subnet;verticalAlign=top;align=left;spacingLeft=30;dashed=0;fillColor=#f5f5f5;strokeColor=#666666;fontColor=#333333;" vertex="1" parent="1">
          <mxGeometry x="140" y="100" width="330" height="650" as="geometry" />
        </mxCell>
        <mxCell id="Ab7Qm6pMcHjsO1RCqllz-10" style="edgeStyle=orthogonalEdgeStyle;rounded=0;orthogonalLoop=1;jettySize=auto;html=1;exitX=1;exitY=0.25;exitDx=0;exitDy=0;entryX=0;entryY=0.5;entryDx=0;entryDy=0;curved=1;fillColor=#eeeeee;strokeColor=#36393d;" edge="1" parent="1" source="Ab7Qm6pMcHjsO1RCqllz-4" target="Ab7Qm6pMcHjsO1RCqllz-9">
          <mxGeometry relative="1" as="geometry" />
        </mxCell>
        <mxCell id="Ab7Qm6pMcHjsO1RCqllz-13" style="edgeStyle=orthogonalEdgeStyle;rounded=0;orthogonalLoop=1;jettySize=auto;html=1;exitX=0.5;exitY=1;exitDx=0;exitDy=0;entryX=0.5;entryY=0;entryDx=0;entryDy=0;fillColor=#eeeeee;strokeColor=#36393d;" edge="1" parent="1" source="Ab7Qm6pMcHjsO1RCqllz-4" target="Ab7Qm6pMcHjsO1RCqllz-6">
          <mxGeometry relative="1" as="geometry" />
        </mxCell>
        <mxCell id="Ab7Qm6pMcHjsO1RCqllz-33" style="edgeStyle=orthogonalEdgeStyle;rounded=0;orthogonalLoop=1;jettySize=auto;html=1;exitX=1;exitY=0.5;exitDx=0;exitDy=0;entryX=0;entryY=0.5;entryDx=0;entryDy=0;curved=1;fillColor=#eeeeee;strokeColor=#36393d;" edge="1" parent="1" source="Ab7Qm6pMcHjsO1RCqllz-4" target="Ab7Qm6pMcHjsO1RCqllz-32">
          <mxGeometry relative="1" as="geometry" />
        </mxCell>
        <mxCell id="Ab7Qm6pMcHjsO1RCqllz-4" value="" style="shape=image;verticalLabelPosition=bottom;labelBackgroundColor=default;verticalAlign=top;aspect=fixed;imageAspect=0;image=data:image/png,iVBORw0KGgoAAAANSUhEUgAAAlgAAAJYCAYAAAC+ZpjcAAAAAXNSR0IArs4c6QAAAERlWElmTU0AKgAAAAgAAYdpAAQAAAABAAAAGgAAAAAAA6ABAAMAAAABAAEAAKACAAQAAAABAAACWKADAAQAAAABAAACWAAAAACvnIKYAABAAElEQVR4AeydB3gc1dX3z2xR75KbZEmWey/YgKlxgAQCJBDADgQIHZIQEuALgYQUh1QgJO8LvARSwJBQHRJKQggQurExNsbdxnKTbEu2bPW62t35zllp5dVqy53V9v3f5xnNzJ0zt/xmtXP23HPPJUICARAAARAAARAAARAAARAAARAAARAAARAAARAAARAAARAAARAAARAAARAAARAAARAAARAAARAAARAAARAAARAAARAAARAAARAAARAAARAAARAAARAAARAAARAAARAAARAAARAAARAAARAAARAAARAAARAAARAAARAAARAAARAAARAAARAAARAAARAAARAAARAAARAAARAAARAAARAAARAAARAAARAAARAAARAAARAAARAAARAAARAAARAAARAAARAAARAAARAAARAAARAAARAAARAAARAAARAAARAAARAAARAAARAAARAAARAAARAAARAAARAAARAAARAAARAAARAAARAAARAAARAAARAAARAAARAAARAAARAAARAAARAAARAAARAAARAAARAAARAAARAAARAAARAAARAAARAAARAAARAAARAAARAAARAAARAAARAAARAAARAAARAAARAAARAAARAAARAAARAAARAAARAAARAAARAAARAAARAAARAAARAAARAAARAAARAAARAAARAAARAAARAAARAAARAAARAAARAAARAAARAAARAAARAAARAAARAAARAAARAAARAAARAAARAAARAAARAAARAAARAAARAAARAAARAAARAAARAAARAAARAAARAAARAAARAAARAAARAAARAAARAAARAAARAAARAAARAAARAAARAAARAAARAAARAAARAAARAAARAAARAAARAAARAAARAAARAAARAAARAAARAAARAAARAAARAAARAAARAAARAAARAAARAAARAAARAAARAAARAAARAAARAAARAAARAAARAAARAAARAAARAAARAAARAAARAAARAAARAAARAAARAAARAAARAAARAAARAAARAAARAAARAAARAAARAAARAAARAAARAAARAAARAAARAAARAAARAAARAAARAAARAAARAAARAAARAAARAAARAAARAAARAAARAAARAAARAAARAAARAAARAAARAAARAAARAAARAAARAAARAAARAAARAAARAAARAAARAAARAAARAAARAAARAAARAAARAAARAAARAAARAAARAAARAAARAAARAAARAAARAAARAAARAAARAAARAAARAAARAAARAAARAAARAAARAAARAAARAAARAAARAAARAAARAAARAAARAAARAAARAAARAAARAAARAAARAAARAAARAAARAAARAAARAAARAAARAAARAAARAAARAAARAAARAAARAAARAAARAAARAAARAAARAAARAAARAAARAAARAAARAAARAAARAAARAAARAAARAAARAAARAAARAAARAAARAAARAAARAAARAAARAAARAAARAAARAAARAAARAAARAAARAAARAAARAAARAAARAAARAAARAAARAAARAAARAAARAAARAAARAAARAAARAAARAAARAAARAAARAAARAAARAAARAAARAAARAAARAAARAAARAAARAAARAAARAAARAAARAAARAAARAAARAAARAAARAAARAAARAAARAAARAAARAAARAAARAAARAAARAAARAAARAAARAAARAAARAAARAAARAAARAAARAAARAAARAAARAAARAAARAAARAAARAAARAAARAAARAAARAAARAAARAAARAAARAAARAAARAAARAAARAAARAAARAAARAAARAAARAAARAAARAAARAAARAAARAAARAAARAAAXUCmrooJEEABFKdwKJFiywdHR0lmqaNcjqdI3kvW6au62mymUwm1545pcnG1wKeyz0i45b3Pnfn9+8tvLfx1s1bj/eey+nm+3t46+bjIddFXvLlusi55bnN3dyXHtlLPh93m83mNj4+OG7cuIbly5c7+F4kEAABEDBEAAqWIVwQBoHkI3DSSSfldnd3j2QFYxQrHSNZsRjJvRTFaZT7mPeua5xfxFsqfW84ub+HeTvYv9XLXpQv3tezIubaS15FRcVhKGNMAgkEQMBFIJW+KPHIQSCVCJgWLlxY4XA4JnKnXYqSKE+ex/3K1CjOy0glMBHsqyhjDaJ8MVvZ6vsVMZcSJse81aenpx/84IMPGlhWj2BbUDQIgECMCUDBivEDQPUgMBwCs2fPzrZarVPYkjKVX95TuawpsueX+2Q+huI0HLiRvbeLi9/O2zbetvLz2spDk1ubm5t3VFdXy/AmEgiAQIITgIKV4A8QzU8dAieccEJZb2/vCdzjE/iFPJv3olCV8RYP/8eiFNh5E38l916OHdxWOyt9ruP+6yoyrjL4Xkf/vXb3MZ87eTgzi/c5nJfjY5/N9cQDE26G4SRsdvG2jfslitdG3lasXr16t+GScAMIgEBMCSTql1BMoaFyEIg0gfnz51v5xTqPN5dCxfWdyFt5pOvl8jt528/bEa67kV/yTbw18rHsm1ixGchjq1mT3W5vamlpaYwzq4vGlr2szMzMHG5fDrczh61DOdz2IXvuUw73NdBWwNdlGDXW35V1/AxWcD9WyD47O3vd22+/LUooEgiAQJwSiPWXRpxiQbNAIPoE2GdqGisES1gROINf/Au4BeEe4pNZdPv4JV3Ldezj8ms9tn2siNSuXLmyMfo9j+8aZ8yYkZaVlTWWn0kFc6vg1pbLMe9dx/373Cj3QhTh1by9z9tLH3GKcv2oDgRAIAgBKFhBAOEyCESSwPHHHz+JFZ6vcB1LeJsVprpquJzNrExt4r1sW3hoce+6devEsRopAgTmzp1bwApqOW8V/cqXWBs9lbCxfC5hJiKVdnDBT3PdT61Zs2Z7pCpBuSAAAuoEoGCps4IkCISFAA//jWFLyBVcmChWc4dRqMxOcytRLoWKlarNH374YeswysStkSFgYh+6MTyrUxQwl/LVr4hN4WcmnwGZ4Rmu9DEX9DQr7k+uXbu2LlyFohwQAAFjBKBgGeMFaRAImQAH6czo7Oz8f1zAHfxyFb8fQ4lfxHv5vjf5pjctFstbPJwnvlJISUBg3rx5pWz9EkVrLivf82TPz3oC74fzHd3FZfy8q6vrN5s3b5YArUggAAJRJDCcf94oNhNVgUBiEzj22GOXsIJ0D7/wKg30pJ7veYvl3xTFit1sdhm4F6IJTqA/AOwcsXDxdhJ35zTeQrF0yZDhjfz5+W+CI0HzQSChCEDBSqjHhcYmGgEeDqxgy8STrCCdrNj2TSz7KN/zHx7q26J4D8RSg4DGPnuzeJjxdO7u6ax0ncp7I871f2UL6jWwZqXGhwW9jD0BKFixfwZoQZISWLBggfjXvM7dCxZeoYOVqmdYqfoTK1WrkhQHuhVmAv3rQh7HxZ7B2/m8ydBisPQ8r6/4FSzpEwwTroPA8AlAwRo+Q5QAAkMIsHIlMaz+wxdGDLl4NGMNH/4xLS3t6RUrVrQdzcYRCBgncNxxxy1gRf06/tx9lfeBfPyW8XDh1VyDbrwW3AECIKBKAAqWKinIgYAiAR4WPJkdlf/J4vl+blnBL8CbeDr9Oj/XkQ0CIRPguF05HLfrEi7get4W+CnoflayvuPnGrJBAATCQAAKVhggoggQcBNgZ/az+Ph53rLceR57CfR5Jy978j+c5/TIxyEIRIRA/+fxUS58jI8K7mIl6yc+8pEFAiAQBgLmMJSBIkAABJgAD9Es5t3fePMVgX0VW63O4heaWLYwNMMQkCJP4MCBA9Vjxox5nC2qU7i2qV41fmbs2LFt+/fvX+mVj1MQAIEwEICCFQaIKAIEWLm6hhWox5mEd7RuWaT4B+xYfO0bb7yBSOr4qESdQF1dXScrUc+UlpZK2I/PcwM8v/fPLCsr28uK2CdRbxgqBIEkJ4AhwiR/wOhe5AmwQ/t5/OL6B9fk/f/k5PzLeUjwqci3AjWAQHAC/Fm9gT+TD3tJdvOPg2PZJ1BWBUACARAIEwFTmMpBMSCQkgTYciWBIJ/kznsrVzrnXw/lKiU/FnHbaVaiHuHGLfNqYAZ/Vp+WlQa88nEKAiAwDAJQsIYBD7emNgEO+jiKf/m/zBSyvUlw/rdZufqzdz7OQSDWBLKzs7/BbfCewTqzo6PjN7FuG+oHgWQi4P2rO5n6hr6AQMQIyK99fiHJMjYLvStha8DtrFzd452PcxCIFwILFy4cxxHh13J7irza9CWeiCE/GpBAAASGSQAWrGECxO2pSYCVK7FODVGuOO8uKFep+ZlIpF6vWrVqD7f3Ut68w4U8ynHcfIV0SKTuoa0gEBcEoGDFxWNAIxKJAMcW+iG396s+2vwbxBXyQQVZcUmAP6uvcsOWejWuhEM6/IXzMLrhBQanIGCUgOd0XaP3Qh4EUo4Az8K6kIcAf88d934BPcQvrJtTDgg6nNAEODzD+xym4XPcCc/1MsdzXjtf+yChO4fGg0CMCcCCFeMHgOoThwDPGKxi5eoxbrG3cvUUK1ffSpyeoKUgMEDAyRMyruaznoGcvoOlbKn1VLq8LuMUBEAgGAEoWMEI4ToI9BEw8YvocT7M9QKylmdlXcN5iM7uBQaniUGAQzds55Yu9WqtzIy9zysPpyAAAgYIQMEyAAuiqUuArVff5d6f4kVAIrN/+e233+72yscpCCQUAf6RICEaPvZq9GK2Yp3ulYdTEAABRQLeQx2Kt0EMBFKHAMe7mu10Oj/iHqd59NrOx2fw0OA7Hnk4BIGEJSBBc9lKK59zq7sTfL6Vtzlr167tdedhDwIgoEYACpYaJ0ilKIEZM2akZWVlreHuz/JEwC+dm3ho5UHPPBwPk8BS3XT85A9HmNKcpU6nqYRXzLOTg3pN5LSRiXrtZLFpdr1Xjs3ksGkWvbdTy7I520y91q5e29obFkAJGOYjYIvVz7gImSXrmW7jHxIIQupJBMcgoEAACpYCJIikLgH+VX8PK1O3eRF4jF844hiskrTFixcXpqenj7Db7SPZSX4k31TC+xa2ilVnZGRUL1u2rFmloESWmfuPdQXpvT2lmlkvdeqmMk3XSzVNL2XPtTKdtFKeNiDHEn/Je7FsI90WP7hG3mTodtDGdTXounbISaYGk+ZssGuWBjpMhxNZKfvCF76QXlhYWMZ9HcufpbEcXqGcP6tjeGvivFr+jNWazeYa3u/7y1/+0sF5QVP/DwqJ8j7dQ7iNy5/CVqw6jzwcggAIBCEABSsIIFxOXQL8a/5U7r1Ea/f0VVzd1NR0anV1tfesKxeoyy+/PJsjZJ/BL7lzOEOmv4/lLZjScIRlqmXjl+Fbvb29zy5fvrydzxMqHf/XVXmUSdN1hzaDiU3XnPoMVpwmcCdKecuK084cYcVuG7d3s0b6Zm7vll6ybl574YK4VCYuvvjiBaxIXc6frwuYpyhXqt/honiu5O15q9X60hNPPCGfOZ+JP/dn8IXXvS4+yT8qLvPKwykIgEAAAqr/nAGKwCUQSD4CEydOFOvAZu6ZKAjudNBiscxfuXLlfneG7L/61a+OF4WKlaNzef8Zzkr3vB7CcRvf8wxbDf747LPPik9MXKX5z63J5yG66WwJmsENm84WKNeej0WZTJbUxIrXlnhQvFipGsefrUsZ7OW8TQkDYAeX8Q5vz/Pn9YVnnnnmgHeZrGT9m/PO8shnUX02D4tv8sjDIQiAQAACULACwMGl1CXAAUV/wC+1X3gQkOGnz/Ov+DfceZdccslsPl7K2/m8Rep/aT2/2P7IVrGHZyxfrnNl3kubcNWRSzK0l9Zr+ywrU6ewIjWTa5KhI7GcpGpqYkvX27qm/ZP9xF75aMlx9eEEsZStpTyGfBx/2M7mD1TuhtNPP65l5MgTuI5Ifb5EcfoXf9bvePrpp+UHhSvxcjmz2FL2CZ94Wm+f48//V/pFsAMBEAhCIFL/tEGqxWUQiF8CJ5xwQhn7S0lsoGx3K/kl9AD/ev+2nF966aXT2bq0lA8v4i0q/0PzX3nFltXSInW9w9vzmUTLriIKe3iIRY+9ldGRk30SK1Rn8BDf6axIzOf6PF+yfIrUT0CU7rWscP3LqZn+ufrC49YSO3uFQmdpn2Ilyy/9hLeJ7jLWnHsudeXmuk8juRer1mP8Of+J26LFVqxHOY8/ZgPJyT5dM3kdw60DOTgAARDwS0C+sJFAAAQ8CLBj+1P8ornEI2s7Dw3OmzBhQgVbkuQFKL/io6p0zP3Pfyi3UdxoBlINH935DaIn+Z84pJe6lLT4uefM+2jsfFYQJN6R+N6cyFsGb0jGCYg16xVRuMxpjtdXnHeyDPUGTf9H9EUWuoef41RvYbZgEVuwvLMjds6WrE4u/Lc8+eKerVu35vEPjR18zvr8QJJVC2S4EgkEQCAIAShYQQDhcmoRYOXqFFau3vXotZ1/tZ88bty4U/jl8yvOt3hci8qh5nTSicuXk4n3PtJa1q4uvrHPSd7H5aFZC577aAqHPvgcKwKns/1tEUsUDJVCzjAJ2FjtfZeHVV+0WdP++smX5w2ZKfockbmB6G7+Ev5//uraOX8+HZg82d/lSOZz0+gbO3fuPIb/H37gUZGT/w+mrV69+lOPPByCAAj4IAAFywcUZKUmAQ6nYN6zZ89a7v0cNwH2Q7l3/PjxYlkQK0NMUu6RIzT3tdcC1S3T8s/7JtF7/oRmP7E+OyOj+2JWrG7gYb9j/ckhPyIEOlnResqsOR5aedGJEgLBlR4iupUP7us/9bk7XFFBW086yee1aGSyBeu3/D8hzvUj3PWxgvUXVrC+5j7HHgRAwDcBKFi+uSA3BQmwzwnrKMQjNn2JlavtVVVVmfxCqXDnxWJftW4djd22LVjV20uIZiwhDs3pkY77+4dz2C3+Bo47JcM6eR6XcBgLAjqt4mofOu03d75Svvq/O/k4P1Az2OmJVl54Ick+VqmxsXELbzK5wZ0c/XGxpP1IIAACfghEfbjDTzuQDQIxJTB79mxxaP+puxGsVPWOHTt2Au9j+j/CihGN3LvX3axA+ymHiM5lgRfnv7wmy9JtFz+xG8ihHx/oJlyLMgGNFnKNCzefu7ieFayAypW0zORwUPH+/dTAlqxYJQ5XMr2trY3Ds/W6l9Ax84+Pm7g9N8eqTagXBBKBQFQddRMBCNqYmgQ40vrXuedsBOpLRUVF1rS0tJgqV9KSgvp6Suvq6m9V4F1r+fhTF/5t5QOsXElco0d5g3IVGFnMrmY2HxmtWnlJjcxniF3iHxlUXFzsVq7cDbmCQzlkuU+wBwEQGEoACtZQJshJMQKLFi3K4C5/191tVqyooCA+/L5H7t7tblbQfe2xp97Ky8F8iwWDWkaCFgaBiBLoKB6lXH7RgQNkttuV5SMhmJOTQzyz0LPoAla8LvbMwDEIgMBgAlCwBvPAWQoS6OzsvI67PWBRGDFiBIczir17orm3l0r27VN+Ik3l45VlIRhbAk0VvECA4mdMhglFyYp1KikZMPC6msL/IxwlBAkEQMAfAShY/sggP+kJLOWQC/ebTN9euGfPL2fyUJwk+aWemekZ9seVHZM/JbW1Lh8c1cobJkugdaREIGDPyKSD0+YqNzXWw4TSULFgyf+HR1rAE0MwI9UDCA5BwJNAzH1MPBuDYxCIFoEHiU5nG9WDHGNq6tRD7B7OSWZqdY4b5zqOhz8j9+xRbsbhidOpfWSpsjwEY09g1yln0qgtA1EbAjbIPUzosMT2K5t9saijo4PMbFX7As9sze/ufu8q4jUbib7zzQBhQgJ2DhdBIEkJwIKVpA8W3fJPgOMPnc8f/FdZwZrqKTX98GHiiO2eWTE7zmhvp4KDB5Xr33FazMJ0KbcRgoMJ7DnhdHJavH3HB8u4z2SYcITabFL3LRHZW61WyuWlexawdbWEFS2rwyELm8/j7R3+v3pkaZRXOIhIJ1EoCISJQHy8TcLUGRQDAsEI8EvgHJZ5lrchn30rh0SIl6QQ92qgqfb0DNp98ucHznEwfAKF6VYakWmloow0Ks6wUglveTyptMvuoPZe92anFpuDdjR3uPKM1mrLzqV9x5xIFavfUbq19NNPqX4C+27FOHHYBhrBypVX4t8rdP3IvswbvK7hFARSksCQl0xKUkCnU4IAK1eycPHzvKX56nCsZ2q522Tt6aFRu3a5T4Pu97IlpDdTwnghhUpgdFY6zR+ZRwtG5Ln2IzN9fkR8Fu9kvXxXayetP9zm2j7h/aEum09Z78xdp5ylrGBlNzdTPg9nR3NtQu/2yrlYsTLZouYnXc//Z4d5uPBOP9eRDQIpQwAKVso86tTu6HOsVB0mWsYUZEjDZ+rKi49A52KpkCEh1YThQVVSg+VEibpgwij6fHkxlWb7/VgMvsnHmYltNxPzs1zbhVye2EFXH2yh56rr6YO65oArce+bfzLZsnIorbPdR8lDs+SzEWsFS1plDjwD8ge8HMLaG4n+PrQHyAGB1CEABSt1nnVK95SVqx8xgIDT7Fo5PEOsk1jR5CWqmlrHVBiajSYvxtGsTGRbTJRlMVMmb7LP4vNOHv6q67RRfWcPNXb3qjYh4eRmF+fSVyaNokVlRcEUhZD6JmNlx4/Kd2372rtp+c6D9M89DdTBQ4veycHWoL0LT6NJb77kfcnneTGH7Ujv7KSerCyf16OV2cnO7hkBQogwg/v/TPT6NURt0WoT6gGBeCMABSvengjaE3YCv2cnXLYq3BGs4BavOD/B5CNxXYYGLTa14SWpP5j1Soa+ZhTl0MyibJpRnENTCrIp3Rx8bovN4WRFy0b7Orpd1pj32BKzn5WFRE7zePjv5jkVLgbR6sfYnAy6ZU4lXTGllH65dje9X9c0pOpdp56lrGDJ0kljduygPXPmDCknmhmtrGAVBVCwuC1lPUR38f6WaLYLdYFAPBGQH1tIIJDUBNgnRMwDAafZyfT3D88/n8SiEKskL89jX36Z0oc6EPtsks5hJZY//BJ1FRQPuj6GLVRfGjeCzq4cQaOy1H2JBhXi42RvWxe9d6CZVrCSsP5IG4nvUSIkcU6/aXYFnctMYv2F9zJbsn73yV6XtdDNTtOddNE3zqesI4fcWQH3venptJo/q05TcEU5YEHDuCgzXGe9+WawEsRkdwz7Y20IJojrIJCMBGK3RHsy0kSf4o7Aw0STWA94gBsW8N1aN2kSNY4dG9P2y6LORpzbxX9nxxnnudpsYUcgGfK6ma0lt8wZR8ewtSbHGt5/7wKeWTe7JNelqEhdDTyMWNMW31atMyuK6b6TptAcbnfAD0CUnrxYEKVN25s7XUOxrmp52DazuZFGblfTQyQGVTcH/Ozg2XyxSj3Z2TR6585gS/iIBpj7L6J/xKqdqBcEYkkgdj+BYtlr1J0yBFi5upk7G/DdqvMLbv+UKTFnMnbrVkNt2HH6ea6OfZEtMy+dPY9+uXCSy+9HnK4jnSawU/e9J06mP502g+azMhdvycoQfn78RPrpcRNJQi7EU5Jh2wdOmUonjTm63qUEHTWSjPjpGSlXVVb+Z+rHj1cRX3w/UeydG1VaChkQCDMBKFhhBori4ofAI7zoMStYVwZr0eHycpJf5LFMhXV1JNPwVVNXYQlZPnMaPbRoOt25YDzHa4qNEjGT/bv+7zPT6H5WGEaHcThSlYMvOXHa/+3JU+kMnh0Yr0ksjqIQz2PLmqSmyonkWp9QscE5TU2Ux4FxY5nqJ04kUbSCJFFv2dcdCQRSj0DQ/47UQ4IeJwsB9r06n/sScHhClsdZd9ZZ1BnjEA3iz+IrcntuZSVl89BldmkpZZeVkZWjaEsyLTie5n3x7IjMgnNVEMIfmYX4n5oj1BAgBpS4bUXySyeDZ0OeXVFCJQbiWIXQ1bDdIpMJ/rn3MB1mZiN2bKaRb/+b2mtrqZ0dyJt5KRpba6vfuhr4s7HtxBP9Xo/GhRnvvRfM2V2asZv9sJTMXdFoM+oAgWgRwCzCaJFGPVEnwC/yU+WFHijtnTUr5sqVWCK8las8Hn6ZsHgxyd47aawUTjrjs3GlXEkbxXL0paoR9HFDK8845DlkUU6ZrFydNKYw7L5nkexGGs/oPLeyhN7liQOdM2ZRfuN+Kpw+3VWlgwPO1rzyCu174w1ycvgO7yQLQGfMnu3yx/K+Fq3zXTybseDAATI5nYGqrOK4WOUcF6s2kBCugUCyEQivF2yy0UF/EprAuUS/5A6M8deJNp5qvuP449mkEkmbir/aj+ZPWbmSMvpnDqaxJW3KlVe6lKt0P07MhVOnUj4Pz8RjMjHLsuwMktftkSjG0hK/sxPZpymfZwwmWjJz4wvSrLSnw0ZmWw9ltjS5umDima2F06bRyOOOoxYOzeBtzZJPrTi8N7JlM1bJzjMaxc9EIswHSe+/QmTMyTBIgbgMAvFOAD5Y8f6E0L6QCbD1arK/myUsw6cLF6r4kPgrIiz5hfX1Ay8nGf6bc+utNOKYY/yXzQpMcYxjIPlv3NEr0wuzaQpv0UrT2Rcs3pzZjfRdfOgqcjOouVwsloMV/kwOgDv7lltcQ8TeZY7avdsVeNQ7P5rntWxxU1gF4dhotgl1gUA8EICCFQ9PAW2ICAFWsDp8FSx+V1tOPTXmQ4PStsr1611NtLKT/Rx+iWaN8Wtwc8nJkKFYuRIhTWUFKxq+UBKZXpaqSfQkAWEpO4faR4wa0hV/nw+Nh+aMzj4dUvgwMyQe13a2BMv/lb/EKmPgD7a/G5EPAglMAApWAj88ND0wAf5SH7LAm7wMtpxyCjWPGvoSC1xa+K/Ksie5jY0kQ0Gzb77Zp4XCu9aSuXO9s+L2XOwwsniy+BlFKonf1/wRfY7/kaojWuVKhP1prGQ1V0zwWaVYOGfeeCOZvILhSjyqtO7YxiNr41UQtrLDfYBZhX3jnj57hkwQSE4CkfvmS05e6FUCEWALlgQYHUgdBQW08bTTqCmIlWjghkgecNT2cRv6AkuW8yzGnIqKoLXlcDiJDPYbS6Qks/ok6Gmk0ozibLLGMKJ5uPtVlZdJllFjqCfHNzMZLhz3pS8NqlYWBi8zGENtUAFhOpFAvdXH+h4J5P/F2MaUCFMfUQwIGCHg36ZrpBTIgkAcEvgX0eoXJ0++iH9djzzIQ2vV7Cwc63hXbkwStX1MdTVljhxJ0665hmRmYLBUumgRWTmCd6IliSjfy+vqNPWEdwHpHHZoj5cI7eF6JmL1c7DyfajHTjkN9T6LzauqosZNm8jW0jJwXWKoSVwqJ1tDY5nai4qolT/TuUeOkJVnQbqSph3gVl37T6LOWLYNdYNAtAkE/1aPdotQHwiEiYC2dKmpOi3tZ2yxypQv/ljPFnR3S/xmpr//vmtR5+nXXUdZCsOVWaNH04j5891FJNy+MMNCO1u7iHWHsKWZvHh1QQLOGgwGIIOHPbfZzZS/bw+HP5Dl/AYnjSc6SHy0Oo5B5U4SJkGGv1sUPkvueyK1l2V8RNnrys+nRrYWN48efesP6urej1R9KBcE4pUAhgjj9cmgXcMmsG3btjlcSOwWbPPTA/GZyWhvp6IZM1zT8P2IDcpOJN+rQQ3vP0njl/9YdkYPV8piq1h5Tka4iourcrJ4WLUgK4Naysb5bZcMKUu4Ds8ky+dYesNrJfQs38ixzs/7ECuBBydMoAOTJ5cauReyIJAsBKBgJcuTRD+GEOBf+qcNyYxxhvjLVGze7GrFmM98Rqk1GWx9U/HRUioshkJVeeGb6TeZZw3KcFqypjJWRpvLqwJaXcvOOGNQ90W5ivUahYMadPQktuHmj7YDRyAQVQJQsKKKG5VFmcDsKNcXtDp5AaZ1dVEGz7oSq5T4Xg3a+Je/5rUVz5sXtNxEEChM58CZvIUjleaoW8N6WfE4wNHGN27cSLs5blRHf1DXcLQjUmVIsFZ7eia1jh7rt4rimTOHDC+Xbt9OZh9R3/0WEp0LC5fycH10qkItIBA/BMLzbRc//UFLQMCTwEjPk1gfm/lF745ZNOOGGwIHFO1vrCUzk/J5mCVZUhVbnpoO+V9fT6Wfeex3JUOOwVJDQwO9z75uh3kpIt3L+Stb4o5xwNaZrKTEY5LZlwWsjDZWTaG8+n3k03mNfbFk4kP1s88OdEEcy8dw1Pd9HAE+jlL+zp07S7g9QcO9x1Gb0RQQGDaB4N9Sw64CBYBAzAiMiFnNPioey4v3umZW8Ytx9Ekn+ZAYmiULPAdLojzY489q4bPZ4oclS8MMJxVz1PNgSaxVL774IomS5a1cyb1ixfrggw/otddeI5vNFqy4mFzPsVrIlpUT0IpVIlH/+fPkmcr4cyZD0fGU+Bn4jjsRT41EW0AgzARgwQozUBQXVwTixoIlw4Ly4pMkM8AknlGwJIEl03gmlq/U2dlJR3gqvCgKcixKRDqvCyeWmTyO9F4cp/GyZK3CUZlpdLDT5gpH4KtvwfJKgihYojht4jAGKmnPnj30wgsv0AUXXECWGIc48G6vOLtLCmTFSufYbvJ5auN+uJMEHZWh6HiyYvEwLRQs9wPCPmUIwIKVMo86JTsaNwpW1SefDPjGjBHrlZfVwdfTyfFjvarn9Qt5hiQd4gV2RcFyW2h6eHiokSPDi9Kwg4eJxPcoHlM5r7k3qSCLJKjmqKw0kiE/iwGrVnFGmt9uicVqc/8kAr9CXheaOYbUunXrvHJjfyozJSUFtWL58NEr37LFFQYk9r3oa4HJZEqOcPvxAhTtSAgCULAS4jGhkUYJXHrppfKLWd0T2mgFBuQl6OJIDwvDCA54GiylFxaSha1RnsnBwz6fsmVi//79A0qV53XP49bWVtrCL9l2DgcRbym9339KloaRBZpL+9cSnMD+WWP4OJ99j/z5WIlvkmy+kiia4nPlVjh9yfjLW89rQjY1xddqLrIMkDuJFcufUu4rhIeFhz3LDSqa7roitIcFK0JgUWz8EvD9TRW/7UXLQECJAPskBR+DUypp+EIT1q4dKERmCBZNnz5w7utAAkn68r2SmXBtbW2+bvGZJ35ZMmvOyUEo4yn5W5vQylasfLZmjclKp/H5mS4rl4QrECUsg5UxSYGWxampqXH5XIXSV2EUb1YsTwWrz4pV7rNrEoTWV4R/GSZM5+HjeEj8mYaCFQ8PAm2IKgEoWFHFjcqiRcBs7n8jR6tCP/WI5UosWO6Uy8uciN9MoCQhHMzsT+WZxM9Khr+MJnHgrqurM3pbROXFcqWSzKxo5rLCJcOI43g4cTIPK4q1y18KhY9nWTLbMJ6Sp4Il7ToyfopfK5YoWd5Joru717v0vhbtc1ZgMUQYbeioL+YE1L7pYt5MNAAEjBHIyMjwvZCbsWKGJS3xiMT3yjMVc2gAf0M9IicWriwfi1GLdSaUoS8p8+DBgyT+WfGSxFIlzu5Gk9zjrXR4ltHFEwnS0vz7Z3nK+jpu4bX9ZBg2XpK4pXly6s3MptYxfqxYPj4z0g9R8GWdwlgntmDFzwcw1jBQf8oQwCzClHnUqdXRRx99tO2SSy7p4l5nxqrn4mgsswc9U7DhwUxeS85kHRyGQF76wwmOKYqZ+GSNUJi56NnWSB6LU7vNYXxhQlE6/KUCtgzOmjXLpYh280w6sd4JO9lkCNB9LHtJuTxLU4ZchY9beRVOhez/Fg+pl9vsVrK4ia7UPGEq5R86cDQuVv+F7FI/q9HwdVHyNy1aFOsu7Y11A1A/CESbABSsaBNHfVEjwC/Nev7lXBW1Cj0qkrUGy7Zu9cjpO8znRXD9JY3DBPha+FmGB4ebxLoTT8np1hgMNkr80/wl9zXZZ3KAVtn8pUmTJrnCWYgitp2jn7vjiLHl098tUc93slI1kR3/B6csyjn5M5TeNtgqlcFhOTwDjnreU8hDxAVsxWyO4ULQrOBCwfJ8KDhOCQIYIkyJx5yaneQXbcyGCcVqID4w3imn3PcQj8hZR49xLZvjfU84lKNwKGne7RrOuSgPoST/6hWbKgMoVJ51uWOFSZ4oVG6LlShm8aRgOfwooZ1FJSSLKXsmUbACJe+h6kCyEbims4JVG4FyUSQIxDWBwf+lcd1UNA4EDBM4aPiOMNwg1oKS2qHvEyuHXUjjIKC+kqw7R4VFvi4Zimdl5eHFSg48OWXKFNcQmLvAeIuJxYNy7qYZ2nfZ/ftIZWV5W3t8F+0dUNR9LsqV2wrm+87o5tr9aKFOs4W6CwZ/ViSkhwSm9ZdyOD7aCPbji1GqW758eXyGy48REFSbGgSgYKXGc07JXvIQYdSnz2lsdRj/8cc+eWeM5LinPoe4NOoYMYocfl6oRqwqo3gYqIRnIebk5NC4ceMGFAYjZfhsfBgzRbXyY5wJWosoHT2OoZZBuVFVwRI/K7fCKb5XEpzVyP0u4Sj88adgSdVd+cXk9Io8n8fPO1Aax7G+NB9W1UD3hOkahgfDBBLFJBYBKFiJ9bzQWmMEVhoTH7706J07/c7a8rc8TndeAdnTMsjuR+tQHfqS1ssyOe4kM+pk+RxJqsqH+95I7kP1v3K3qaPXtxUrn5cVEsUyWBKlSqK9y8xMWVJHZlhypHEa42cmXrDyInW9248iKfXprKh3Fg0O9ZbDlstASfwCx1RXBxKJ1LU9kSoY5YJAPBOAghXPTwdtGxYBni32Khfg29wxrJJ93ywLOVdu2OD7Iuf68pPRzWbqYp8aSf4sFqJgqQ5dSagBd5JZdOLELcmIkua+P1L7Xj+WOtX6OgIME1ZUVCixkpmEEjfLvdDzaI4j5VZGVdsRSTmx8rX7USTd9fbk5JM9/ahTfiD/Pvc9FaxQmqO8hBIrtG+468ceBFKJABSsVHraKdZX9vuQyJxrotVtGRoUJctfyiga7Dcjcp1FI8lp6lsSxZ9TsyhXqos3S8wrWaNQwg/s2rXL1RTxyxLrTrwkfxYo1fZ12p1+PbhEkRRlyUgS657Re4yUH4psu81OKpa+zmIedu5PvhR49zX3Xj6fUQ4+6mBL6ovu+rEHgVQiAAUrlZ52CvaVfz2/Eo1uy1R4z/UGfdVp9goBYM/IpO7co4pPIMtOGS/87HbG9lW2O0/CDdSyg72sWeiOnVXOMxc5sr1bJOb7QBYolcbJEF9nAOtOKceEEv8zGfYLlkRxlQkBqhbCYOWF63pLgP551tGbkUW27D7ndpNikNUxvBB4FIOPvvPEE08cXcrAs/E4BoEkJxD8GyjJAaB7yU0gGgqWRGyftHp1UJB6f4DLPkF2bC8ZNegeG/vcyOYriXI1duxYX5cC5olPljsMQUDBKF2Uoa8utkANNzWzhSdQEsVp2rRpLp80X4qWOP2LEqaqiAWqK9zXxHLV0Ru4f551unyxNI0sigqWTMSY+NFHnkVE7Jj///4escJRMAjEOQEEGo3zB4TmDY/As88+u4Yjuh/iUo6OpQyvyCF3y+wslUV1bTx7zZ268/sc293n7n0LKw4jMn0v9yJKg1io9u/fPxB53H2fr71ENpeQDfGUOtl/SixQw01tzKmLF4HOtPj/jShKlAQUlfoklphY9MTPSuJgxZNFz5uFfAaMIHJY03hWYRGZvNav9C7X8zyP110cxUPIB8eP98wO97E86H+Eu1CUBwKJQsD/t1Oi9ADtBIHABORLfllgkdCv5rGjdCkPx6kkt4Ll5Bei9www9/3ycg2UJAzD1KlTAwbEFIuNDAtOmDBBaVgxUH3hvtZm8z0DMJR6DnWphVaS4T/xs5KlgsSiF8/KlfjhHe7uNYyjq7CEHKy0G0kSfNTCEyEimFY988wzvK4PEgikJgFYsFLzuadUr9nqczcPsX2dO300hkEYCEikdpWhQXdVbgWrfcRonmbv+7eNzCQUH6Vsi3+fKVEWpk+fTu087V6sMrKJZUssM7JJqAJxbI+3JD5mLTbjyoO/fkjQUZlpl2P1z8rfvfGaf7CT108MYZalhG2on3GMoW65Hd6rFywwdJ8B4fsMyEIUBJKOQPJ8MyXdo0GHwkVgy5YtXbwIsIy7fTZcZUo5lRs3Usm+fYaKLPrq16iZg0RKsEy3z5X3Xt6vhRmBFSSxyshwlyhTRTw7UYKLinVGZtHFq4WmoauXusPgf+UJXDgW8lBhMiRRFhsUrXK++ruP0mjTJxupsGanr8s+83KbmqiRJwXYFJcZ8lmIj0well3B1qvbfFxCFgikDAHfP6NTpvvoaKoQYMXjd9zXw+Hqr8zCGutjMedA5dc5TbQuo5AOdPS4tv2897Vtbmon8VVKphRu65WbjShYjT3hs4q5y432XpTqg53+Q3yotEec4z+68hbqyTFgqOV7Jq7hSCZGnL6CN4aXSjTdGlwMEiCQ3ARgwUru54ve9RNYt26dja1YorWcOVwoMgtrxrvvKjm2u+uSIcG3vncvVU2bFHD4T+TlXSfWjPKco0Ek3eUk6n5TYzvVsULpDkVhYR5shAuaJLp9K7M4zJYdV/wrPjebNDJ53CzKaDqHoUg3J+bvRXESPNDRTYEitwcFxQJ1rKCtaO5xrVNY8dG7Kre4ZNJ5AoBYsNp9xGlTLmSw4DNPP/30/YOzcAYCqUcAPlip98xTtsc8pPYQR+7+Dg9fVAwHgliuZPFcI2nLuRfToamzlUMUiC+OWLfKsvuWujFSV7zJyot/d0uXq1nu6OSiW4lClMm+ZjITUPZWVpwk2di37ZOGNvp3zWHa3dp3n+uCx58FI/PotLFFNLUgm1hVc1kEK1ghDTSr0OP2uDkU5Wp/e3fQqO0qDRbFXFL1onNowjuv0OhNa/syFP5W8UzYIzwxotfATEQ/xXbz8PX3/VxDNgikFAFYsFLqcad2Zz/55BP7jBkz3uEXwGVMwncshCCI8jlK+uRVq/iVrp5ayirpnVt/SbIszoT8LCrJUKtahr4qc9mnysNao15rfEhKOIWV9S0clXxoe8Q6JVabNrZQNXFfJbaVWKP+vGU//WvvYWru8T+jUoZZV9Q1k1jCphRmuwpv53tz2eFdLFyJkATJPlauhhvZ3t3X3W1dtLahLxRIw5TZNPmNF8nkVBtqNnGMtiwOI9IwzLAe/L9111NPPfWSu03Yg0AqE4CClcpPPwX7zov71s+cOXMTvwi+wt039CZO43X9Zr31FlkMrOXGzij03zvuo44RY1y0x7HCNDpLzSolMwplU5WPt8cpw4GiBKkOfYkS9i7Lrz7UQo6uTmrb8jEdfuffVPfSX6nhrX/Rkff+Q0dWvE6NH7xOrZs/Jqetm3bp6bSwYhQrVpaBodXcNEvcK6XhVq7k2Qu3T5s7XR+DHl4hQGYWjtmkvlJUJi+vZGcLVhvHWwsxPc5Dg/C9ChEebks+AhgiTL5nih4FIcCzm17i4KPfY7HfBBEduCx+V1NXrKA09lcxkjZ96TI6PGnGwC1GnddliEwUhvF5mQNlJMKBKBBr+IXvHhJUaXNdeyf97fHHqO4/z1Pn3mp2Rgsc8f3QGy+wiqzRheOn0OUXL6Frb7qZ7ZJptIeZjeahVbFmxWPqYqud+KP5i9ofaptr2/oW9nbfv/m8y2g8K6QFBmYVVq1bRy0cL6yjsNBdjNKef7D8+8CBA9cqCUMIBFKEQHx+A6UIfHQzdgTYkrWSLVml/GKYr9IKWSA32FqD3uU0l4+n927+mWto0H0tP81Kkwqy3KdKe/HHEh+lgvTE+D0kVrcPD7bQIW63anr/3y/Tr75xDR1865/U2yxL14mKppa6mw7Th++9Q6//8yWadcx8GjF6DMnQpJ2LyGYly5CZUq3KkKSkRxKGQWYLhhLrKlilT+2od4X/cMuJ9bSxajJNZOufpshTfkgU8DC4RHiX+xXTao4zd+5LL700vGmQipVBDAQShQAUrER5Umhn2Alw7KhXc3Nzp3HBR01MPmop4qVpXFPZfVzzlyX+Vv/9/m+HrDfYyy+w+SMMTKPvr+BgV49LWchna1Y8J5npJ8OCjYrRyHvYIrj0iiX04h//j3rbmofVtUZe/uX5J/9CzZ3dNHPhyS5/LrGgiZJlibFflqy/WBsmZ3ZfkMQy+vddsiLU4NRZPIoyWxqpZOfWwRcCnEkAUhkOP6K29uUOLur0J598siVAkbgEAilJAApWSj52dFoI7Nmzx8mWrOVsyTrIlqzTOWtIxMoMjpY+8513SJyAjaSNF1xJu045a8gt8qI9hhUsq7p1YKCMerZ8SNTyvDhVsprYKf2D+iZlp21ZI/B3t36TPn77jYE+DvdAytzw4UrSsnJp9PQ5LovRztZOV5uEXbRDORxhRXM7+0V92tTBTvu9bFlz+N5YERRn/2CbKIy+ZLY1dww4uHszPDhtLs8q/DdZ2a9NNeVwANIuDlzbyetZ+kv8P/Ma8/4yD7kf9CeDfBBIZQLxYj1P5WeAvscBAfbJEivWM7zNdDdH/K1mv/kmZXos0uy+FmjfMHkmvXrXw+Q0+7Y2XTBhFE3m2YShpvLcDJpdnDsQ1iDUcsJ1nwS43NHCSgQrEkaGvp69/zf0zP/eG65mDCrHbLHSI++spuLRpYPyZSHtScx+ZJbaTM5BNyueyBBpDVurdrFi1x7GtRcDVf/ugSZWbv1bAMvWraQzfnlLoCKGXHPwckuffO5z1Jmf732tnRWr21ixetj7As5BAASOEoAF6ygLHKUwAbZkNSxYsOAxh8NRxBiOzWppcc0YlJlVRpJE0X7txw+QLUA0bbFAVQ3Dab2V/YtkuElmzsV6HT6JcbWK/a3EaZv1LOW0+cMP6IHbv6Msb1RQ51ha6ZlZNOuEkwfdKkNpwk7CPIizuTRZrFqegUsH3aB4Ij5fUmY1x/vacLit34ndABDFevyJvcMKlli2/KW2MeWU0dZCJdVb/IkMyZe1Nktqa6mRhwpldmF/epctV2fxbMHX3RnYgwAI+CYABcs3F+SmIAGJk8WK1ivnmM2rpr3//sUWm03Zy9eFi2e0vXPrL+jIxOkB6YmFY14IfliehUoZEkNJFjzOZ+f3UIYcPcszetzCCsXHHHPp06bOgejsRsp46ne/pj3b1F/2Rsp2y8pw4emLL3GfDtrLEjsyfCfKlljfDrLzucSjktASEuhU9qIwiuuWW/mS/E7XEJ3dFbdLHNZ38ozFDUfaaAdb72QygihafGtUUw+367/7GoO6sdfPnE8Vq9+hjFb/li7vhpt5EfGSmhpyWiytXfn5P5o8bdoNDzzwgLEou96F4hwEUoQAhghT5EGjm8YIPET0Q77jZ0bu2nTe5bT2shuVbrlu+lgqDrKgs1JBLCRxSMdwbK3xriCmQ9zIVIsJKidKnUSX38MBLZsUndj9FXr5MVOovUX9Re+vnED5ZRMm0YOvvR9IROmaKFisbhmy0CkVHCahalYQ/7ZTzQ2qaM+ndM73ryGT3dj6jfwRu+AbRP8IU5NRDAikBAFjv9BTAgk6CQJE3yT6OXO4mjelqecHp8+jjy/5ujK6Lbygc7iSWFpkeOp9HiZ6a3+ja3kZI/GnArVDlKpDbKn5hIe9XuWla9ax1Wq4ypWDX+6RVq6kT2VV4wN1Tfma+JgJ43hNu/wsJ+SrvY3jJhv6nHIZElzraihXvmgiDwQCE/DthRv4HlwFgZQgwErWY78neos7+0uOin2Jv7ds2+ix9NZ3fz0o3lUwQFsaO+iUMcaCOQYrU6638Ey+9T19fmNp7FtUwlayItnSrS5fI8lzr/nnWZ6DNQibo294TIb/JMyCbG29dn/d9rzd0PGRto4+s1uEtZYzz/+yoXYlorAsN7SFF9I2kjZ/6VIasWMzVa56M+BtrFO+zj4kt/HPhvUBBXERBEDAJwEoWD6xIBME+gjwL/c9tFS/7JyMxxfP+vsyS9m6D8jc2xdAU2YJ7vzM2fTJkmtJliYxkmTtPXEQl6G9SCWJFC6WLdk8k/gV9SlaJtesP/EtEktVpFOO2UmVad00pb2a5k+vorWbd0WsyjuuP49+dOFxVKd10vbuDOpwJKexfiuHf1BdisgT9vvf+hHZMzJp/Lv/Jo2fv2eqn3GMPnL7hkXfstvf9czHMQiAgDEC8MEyxgvSKUjg+OdXjSWOEyldt3R3UfGubdSbme0KImpUsfLEN5UXKT6/aqRnVlIeZ5mcNDWzm0qtveRoYYfp9gP0yjvraPG3/4etY+FX7K748qn0+59eS1paNllGzGTvKY1qbGm0ozudup3JpWg9sf3AEAXayIcor66GRm9aS1mNDdRVUEz7jzmJ2keM5ij4lsq1SxbUGCkLsiAAAoMJwII1mAfOQGAIAd2pVbmXGpFf/eJvFY60ja0P9aNtNJpjMyVrKrLYaUF2J6Vp7MfU3exSrqSvZ39mHv3vnVfQD//nOWrlNQjDkcrHFNMtV55N1y45zVWcbusgZ8chMmWPYsuZjcqtNtrSnUl7epKDt8x89LZOGuXYOqaCZPNOVq13POdBwfIGg3MQMEDAZEAWoiCQkgR4fbZxker4u+yUnqxpNFusTsjpcClX5LCRvYkXcPZIoghteeU3dOOlZ1Iax/QKNU0eN4Ye+dl1tOlfv6GvX/I5svAyRe7kaGXDo9PuOpWh0ZmZXS6Fz8oKX6InmdAQqcQ+h6JgIYEACAyDQOjfasOoFLeCQEIR0GhcpNorM8AkFlN5TkakqohJueJvNTerq3+hZZ3sjbxkXb+i49mgooIcuvf2S+lbl59J/3lvPX2ydQ9ve2lL9T6ysYO9dxLlacaksTR/5nha0L9NnziWTP7WGuQ6Hc27yVw0kYvq84gQxS8v10Er27OpK0GHDMX6ucfA7EFvjkHPdaoKKgMBEACBgASgYAXEg4vhJLBh71cLZ1c+1RTOMqNU1rhI1vPK3sN0xdRSyuAZfsmQOGwULcjqIEu/lcjJViTdFjgifmVpCV3/ldMHui/KVW3dEZfiZLVwIFWL2bVlZ2VQusG1GJ1dR4iaTGQuFKNMn5IlfmFiXUtEJUsmJbyxj/sUwaRpOixYEeSLolODABSs1HjOMevlJ3uvmKGZzLfzMNs53IiiDTVXVfMr7pGZ5Y/dxy/ixBin0Sm//70cEY4yo/DF3YdoycTRkawmIm33VWgZ+zqJBUuSOLQ72g74EguYJ0OGEypGBZQxctHZ2cCN6SVTzhjS0vtmfLqVrPfaczhye5/iZaTMWMm+tb+JwhXnzF8f2O8wqRSsjTVXL2AvQJ4UTCeQpu8ip/ayub39sRkzlvdNCfYHAvkgMAwCifOtMoxO4tbYENhYc9V3WYO6m2v3ZZp58Uh55UWf1ZYOHQeKTXP91nr88lX/5IuiIEY0LRyVT4vKZCnExE6L8toohy1EztaakJSriPfeZCHNnM4bO7vz9nFPIb3ZUUy5bBmTdSJzrWYyixkuDtNKXtBZ1h2MQjr44eKFo6NQT8Sr2LD36jtYqfoZVzTIoKBrtNfsdF46s/LxFRFvBCpISQLx+S2Sko8iuTq9vvbqC9lq9bdAveJhiKWzypf9NJBMPFw7/rlVr7Np6YxotOXkMQV0EgcgTdR/zGyTgxal1ZKjvZ70npZoIBt2HWJG/U5NOW3syhwoK4uHJF3KVhrv2ZrWp3yZXQtsu5Uw9xqFAzdF+GDd4Vb6T01khwY9u9DVlZmz4WtzOCps4qYNtVdfyrFA/hqgB51OzfTZueV/Xh1ABpdAICQCgzT6kErATSDgi4BTvzGYlqDr2g95CPFvcysf3+yriLjJ0yhy0UC9Ovl+XTPt48Cg540bQZn8ko9Vkgjh3XYnyaLI3Q6HK5il65jzJLClbIPPHa7zk7Oa6eSRxocEY9VPqVeU2cWFTYMUrE5eRFu2+gARJLLZ0iXKl1sRy/U4lvwcVs5Mwf4JFDu+jpcqiqZyJc3Kzuoo5902xSbGndiWXddU2nXnw0EalqXpzltZ5uIgcrgMAoYJQMEyjAw3qBDgEZYpCnIWfgF9n+UuU5CNpUjUFCzp889FxwAAQABJREFUpMwOe3TbAVpUWkiTCrIozeRrhDUwDrHK9ClHrAyxojCgEIly1K8kBbouS+eEkiryu0K5Leb3zO6f8Wik1x29DpJNIvL7SqK4uZQwj6HHo8OQopiZKYcVsUDWymZetug/vAbk7kjOGPTVeM7jUA3Ffi4lRLbd4vwpNzQnWGOZf1Ss08HagevJRwAKVvI907joEX9ppSm9rDTt4vV7rv3RnHF/2h0XDffVCJ0tWIHegr7uGWZeG79YX97TQBYOPzAxP4umFGS71hAcUJQGLEl9liOXVWnA4tRnXRpmE0K63ZZAzuKeHcw3O6iMg5Hu44jv4Ury+RdndNn8BQQVVy9RsvLYGuatfDXxupIr6prYAV/pPylczR4ox+kwFQycJNjB5r1XTXcQXa7Y7MFrBSneBDEQCEYAClYwQrgeEgFenmQN/wY+S+Fms8nkuI3leG3lOE0axSxIlawRKDGPZEuE1OqM3bDmcPm0OKLfdjEUijItG3mtGTnc/gz3fs2kFw63jFjd79C0X/D3j6rptzZW7US9yU1A9QOY3BTQu0gQkJl3SonfMVdt3HVt+ObkK9VqQCiKPlgGWhWXojt5vb9ETIftFmqLgYIVz6x4kkpCKljr9125kJWr85XZ6vpzyrIQBAEDBKBgGYAFUQME9O6nWLpd8Y4M3eq8RVE2+mIyRIikRODjziwSZSXR0ifcbqTBBHgSSkIqWJpT+9XgngQ863GanH8NKIGLIBAiAShYIYLDbYEJSMR2tkwFm8FztBBd/8a63VfGq88HFKyjTyrgkXgL/bslL6CM0YtOUxppaTmuAKFtxKEUtPB+bYnl6uGGEqPNSn55jRJOweKAop/nB7PIwMN5aG75E/sNyEMUBJQJJN5PTeWuQTDWBKxO62/tpt6buB0qCkqeyezyw/plrNvto36V9vu4LTWznjhSTHN4Vt5sXlg5lKRrFjLnlZE5ZzSZs0cNRF6Xsp7YvI+un15Gem8HyRI4spizs20/6byYdKjpwUMj6EgCWt1C7a/qfbzQQkIpWOzPpm2s1dWtVzq7vlmt8fh9o/qIIBfnBML7UzDOO4vmRZfA9HF/qOPZd4+r1qqRdvMHtYuPRntUvTHycjFzco9818Jfg51DZP94fynV9VrVCzdZyVxQRWmViyhrxhJKrziVLEWTBylXUphZFnXmqXdi0TLnV1Ja+cmUMW2J6z5zbql6ff2SzzUW0mut4bW4GW5EnN7A+kpCKVibaq5ezCiPUcXJTvz3LSj9w2FVeciBgFECsGAZJQZ5QwQ4iN89Opmu4ZtUpmiNyKEckX3QUCURFF783HPmGrW2R7AViVe0zMi7pXYsXVrUSJ/Pb6X0/oWfPXtiN2dSeu4Yl6Jk5j2vXeN52eexxdcSNpxnzit3bbqtneyNO8jRVE26vdtnGZLZw0rgffWj6HUoV34Z8YWEUbDe0pda9NqanwXqjNe1BmuG6bdeeTgFgbASiHJ0n7C2HYUlCAH2i3iaF1pVjZRcw2sUToiXNQrnv7wmy9JtT4wYCXH6ecjjGFPzszo5YKrOi8Hp1MrK1157Nj1zzvFkdLmZp3fU0yWTRgfvqe7k5XrqaOeBXdTbVkeFZjulc/0H2ar2Li/u/EZrblhjXgVvUOJJ8CzCTauWnDArEVq+ofbK6zgy6h9U26rr+s1zKpf9r6o85EAgFAKwYIVCDfcYIsA+yb/m952qglVRVLP3Uq5AeWjRUGMMCud2tZm6tHgctTTYkRiKi0L1VlvuoBacylHqjSpXEl0+i2P/KyX+0Jlzy6g+N4u+tzFN6RYIDSbAkdwTwoLlcivQtZ8Mbr3/M1nkOasn92H/ErgCAuEhoPhtFZ7KUEpqEpg59tH1bLh4RbX3POJzuzisqspHUm4ENYTmqR3JRiVB2XNLBitcKl1qszlc6/6pyLplcjlCOlLIBBJCwcqm3G9xD8tUe6np2tJJkx7wvb6RaiGQAwEFAlCwFCBBZPgEnGQoNs20TfuuVg8UOPzm+S1h+ZIlDtb18GXsl1BoF2SBZKOprddOGWZjX1k5IdRjtF1JLJ8147nNcW3+W7Pz+nweyrzDwDPYMqu84gkD8hAFgZAJGPu2Crka3JjqBOZWPvo+m6TeV+XAPhLfV5WNtBxPV4cPVpghpxlUlKR6WZyatV1DCRYsQ7iGCOfY2+LaipVu7b2NG100pOF+M/Q7NW0p1h70ywcXwkkAClY4aaKsgAR0zUCMGqJj1++94vSABUbvYmf0qkqNmtJMxr96NB47Fj8sIynbgiFCI7y8ZXWTlu+dFy/nsrwWfxpuNtCeD2dXLHvBgDxEQWBYBIx/yw2rOtycygRmly9jPyxtgyoDzWSOFysWLFiqD01RzirxrAwmUZUcvPi1kRSKpcxI+cku60zjMPpxmnSL/UfctGzV5plMWrx8n6g2GXIJTgAKVoI/wERrPodr+LVym3X99E01Vx6rLB8hQU13dEeo6JQt9ki38cjrMuvQadCCFYoil7IPxUfHNbtu3FnORznhzlq/59oq/rF2vXq5+ms82eYtdXlIgsDwCUDBGj5DlGCAwPbydlm5fqfqLewcH7Nfnc8tJvOHd4y7pbJz13TV9kJOjcDuNuM6qxi9jA4RilIWgrFMrROpIGUmA+H4owdE0xx3cW2qbePfdfoPotc61AQCfQSgYOGTEFUCS7TlDg7ZcK+BSs/fuOfaaQbkwyL60feqplROqFxBpP82w9Gl+kUelrpToZA9rcajX4iyZDc2QtiP0vhwZCo8A5U+nl738jwVuWjKbKi9chYHcfmqcp2a9rfZlY+vVZaHIAiEiQAUrDCBRDHqBDJtOctYcalTvEPTTY7bFWWHLaYvJZNYrZwm5zou7HgpMM3ZM+xyUcBgAnvaQlOwjA4RttrshocVB7c0tc9mN3/0yId3VG788PaKm9YtHVcQDzQ4bMovuR2q7y67U7P/MB7ajTakHgHVD2nqkUGPI0ZAgvzpmul3Biq4dPOBr1UYkA9J9KM7Ksav7h73tlituICB8O1QsELCGfCmuo4e2mnQimVmQ5TdoJP7ke7egO3AxcAEHH3rQ87kBbbvt3XrB/jHx+Orb688MfBdkbu6ae8VJ/Gylucq16Brj80d+8SnyvIQBIEwEoCCFUaYKEqdQHoGyVIVzYp3WBy9lu8qyoYsNr407cbxoywVI/LNndkZpgHfHShYISMNeOMLuw4FvO7r4mu1R3xl+81r7IGC5ReOwoV+BYusFo3ys02ZZSXm0yeWpb2ocGtERJya6VcGCu52muw/NSAPURAIKwEoWGHFicJUCUwd8Wgbyz6oKk+afu3HdVeNUJYPQZBjXx6yWLTKwhxzVlmxhSaUplHFCCud6VhFC3vWUY4T0RpCwOr3llf3NriCh/oV8Lgglqt71+2hdQ2t9LoBJWtLI56ZB0blwxJHI53etYLmZdRT1WgrVY2y0qgCC2Wnm8rYFa5YuaAwCrLv1dlc3CmqRbK73oNzy5/YryoPORAIN4G4nIIb7k6ivPgkYLNY/zfN3nsrty5LoYWZ1l5NggreqSAbkggvSN3guQKiuEZnpGl0vL6Njm/axr75Gu22lNPGtKm0KW2Ka99sygupLtxE1NbrILFifWXS6IA4ZObgjz6spncPNLnkfrFmFxWmW2nByMDsNxxpoz9srg1YNi72EShwttIc25a+rWcrlTnq+y64pncMmSQQ0lSD4bCWtUk31rp8r1SLabEYs3aplgs5EFAmMOQ/R/lOCIJAGAisr73qf9mn4tuKRTVn9tgqJ016slVR3pBY44OTzuW2vGzkplpLqUvR2igKl3UqHTYbWLXDSEVJKmvhGAr3nzKVjhnhW1kSp/YffbiT/rtv8NCgrEl40+wK+vL4UQNDuW5ELezY/uSndfQUb0Z9ttxlJPterLGzbVtZodpKc22bqdJuyNBjL7xpR1Rn1rL16quka0+qPhfWAH84p+KxX6jKQw4EIkEAClYkqKJMZQIb919VrjtccbHUvrB5YdfZlcvuVq7AgGDLg5OO55GoVQZuGSJaZx45YN0SS5ecIwUmkM8LMv/hszOoMjdjkKDMALz74z1DlCtPockF2XTuuBJaOKqADnbZ6KXdh+jt/U3U68Ryc56cMvVummXbNqBQje+tYXtsyIaoXlawohbhfc2a661pI3u3cn8mePYpwPFBPc0+Yc7ov2B8OAAkXIo8AShYkWeMGoIQ2FBz5WMclfnKIGLuy/W5Dr2qqmqZ8UiV7hL87Jsfmjxed+jKQVD9FDMo+4i50GXZ2uAaVpxKNWzxQhpKQIKBzinOpdPGFlNRhpW2NLbTi6wstfMwIpJxAmm6jWb07qC5PZtdStWk3t1kprCxtLGClW68VaHdsb7mqm/wx+Mh5bs1Nm6WP6bu36lcMARBwBgB+GAZ4wXpSBBw0N387X8FF62i8I9uNWtXsezvw90Um249ZCVbWIstdjTRIsdKWtS90lVuiym3f0hxqmsvPl3i25XqSaIvrDvc5tpSnUUo/bfodprWW93nQ8XDfnIseRFKIZu+jLZnzYHrszS77UdqXw1Sur7bdjDtEaP1QB4EIkEA3+yRoIoyDRPgX6nP84fxArUb9d3byjsmuaLCq92gLNX4wKQubsfgsSrlu40LtpuyaLO1z2Fe/LiqrePYziDLGiOBgH8CYo0Sq5TLh4qtVGKtEqtVNBJrV91FN+0YiBMXyTo37r3q+7pGElhUKfEMx8tnlT/2VyVhCIFAhAnAghVhwChejYCZF4HmdQcVFSytauq+3Iu5ZGWnV7VWuH4nN7Bsuar8cOVynJ10PIeAkE1Sl5ZBW9Im0SZWujakTaNPreOpV8O/6XA5J/r94i81oXevy0I1l2f7zbRtJ/GrikXiHyBRsWBt2PvVQlauvmegjxtnjq18yoA8REEgogTwzR1RvChclcDMimUfbai56g2WP0PpHnZ25wlmT/Ev1nB/2UdVwfLuq7w05/dsdG1yzaZZabt1gkvZEgvXVusk6tGi5l/s3TycR5GAzOyTGX5ipZIZf3EUhy3c/3O+qZoybudFmpWX59F1/U5NW4rZDb5pIjcGBKBgxQA6qvRNgONQ/UozKSpYRDPZOZ6XzFhmKKyC75qP5mq6dkjnWA3xktL0XtfsL5kBJsnOw4c7rFUDflyb0yZTpxaV0Zp4QZK07ZDYU3N6JBaVhE/YQhKbKk5TxJWYj2uuLmXlSjV8i5ieP5hTEd7vgjhlj2YlEAEoWAn0sJK9qXPGPfbmxporV7PT93EqfdVI+z7LhVXBYtVKLFhxmyzseyMOzLIt6fgnOXnN213WCrZwcfBTjsMlAVBbTTlx23407CiBkY7DLmXKbaWS6OkJkfSwW42HdNtC+o85U/mXA1uv7hhSCDJAIMYEoGDF+AGgei8CmunX/Mv17165vk81OmFD7VWf4SnZ7/gWCCXXyQoWe5kkSDKxijWxd49ru4Be5TefRnstZaxoTXUpXRKLq8mUnyC9Se5mFjmbXZapuWylkiG/MQ7jazHGBaHwD8sP6tbm2msmOnTnNYMyA53o9MqcymXvBRLBNRCIBQEoWLGgjjr9Epg59tEXNtZeJUEFp/kV8rjAo3lixQqbgqWbTIc1du5K1CTvvnH2fa7t3E5xaSPabx49MKQoflyHzCWJ2r2Eanees61/uK9vyK/cfiCh2h+gsRH9B+Ho/T/julXfTbrJrP0gQFtxCQRiRkD1QxyzBqLi1CIgTuvr99LdvF+m0nP+pj9z/Z6rjuHhxY9V5IPKOKktgQxYQbsjAuLbU9ZVT2d1ve2SFwXLtbQPW7fEwiUKGNLwCWTrnUejpXPoBFF0I2zsGX6jQyshYgrW5n1XznU49a8YaNYz/KNsvQF5iIJA1AhAwYoaalSkSqCxovLJ4tq9d7F8hco9mlkT/4slKrLBZPiF2B5MJtGvi+/P6V2yrXB1pdFU0G/hmuIaWpQhRgQ/Df6UM/QemmH7dGCmnwzVypBt8qfIzQJxOE2/4igQqmP0vRo5OQgpEgjEJwHVD3J8th6tSloCG2uvvEnXtfsVO+h0mhzT5o594lNFeb9izQ9MXMzKxXN+BVLggjjJi7O8OM2L87w40YszfaonmdE5TZaf4Rl+4kM1xbaTx7HCtvxMIuFt5KVyisPd4A0115xK5FQe7mdf+4d55uA3wt0OlAcC4SIAC1a4SKKcsBJoo44/5VCO/DodoVCwyeQ0385y6o6xfgplRaI9SYd1/PR4aHaes51O7F7r2uSqhIGQcBAynCibhImQcBHJnkR5EiVKlClRqkS5EiUr5ZMeITOd7vy1geH5TqszTazcSCAQtwRgwYrbR4OG8fI5d/IH9OeKJGzs7Tphztg/7VOU9ynW9OCkU3l8TPlXtM9CkjxTAp1KwFPx45Jo8xIIVQKiJnpyz8h0LT/DAT5l+E+GAZGGEGhgC9bIIbnDyFhfc/WX+IfNi8pFaPqvZ5cvkwkuSCAQtwRgwYrbR4OGOR36/5lN2u38qzZXgUaa5rT/P5a7RUHWr4j4YMH/yC8e14V0XvNOYjfJJkmW8pElfUTZkiV+ZKkfWfIn3pNYKsURfS47pItSJcFcxVEdKSiBsDq56/pS08bavb8IWuuAgNbksOt3D5ziAATilAAsWHH6YNCsPgIb9l51NytY31Pk0WE1OSqnjX3iiKL8ELHW/5kyxWF29oVNH3IVGSoEZLFqWbTaPVNRFrOWRa3jIUmoBImS3hctfStJKAUkwwQOsgUrbFNPN+698nJd055QboWufX925aO/VpaHIAjEiAAsWDECj2rVCJid+u8cZu07LJ2ucEd2r8Msy2v8REHWp4gtXW83231eQqYiAbP4LvXudG0XdbzimpG421I+4MMlflwtJhWjpGKFAcQkmKfLh8q1BM0WkmCfSMMjwCsohM2CtXnz4jSHphnwpdLrbFar6uSX4XUUd4PAMAnAgjVMgLg98gTW11z5e/5S/7piTY3mjMzKGSMfCincQuMj4/M1mxlvYUXYoYrVWEqPRpvn2YpHzIWhFjXoPlluxu1DJXsJSYEUdgJ1bMEqDUepBmcLszFb+8asikcfDkfdKAMEIk0AFqxIE0b5wyag6aZ7+UfzdVyQytS1Imd39w0se18oFRfWVXQ0F+8P5VbcY4BABQ/VyXZ255uuu+rMI10Wrqdyzqd6s8rE0aOV5fKsx6val7sWSpagqkgRJxAWC9b6+suz9R7thwZmDlYfLq/4U8R7hwpAIEwEENwmTCBRTOQIsL/FLi79WdUaOD7OrTL0oCrvKactfVsGCDF1zBNKFI5lKO/zXe+6/KOMVjfBXuNS1KBcGSUXsnxYoqlqNsstrFwpz0Zkre7Hn9WWYgA/5MeGG6NNAApWtImjvtAI8LRsvlH1l3OpIy/7itAqct3VMYx7ceswCJTaDxq+u9QOq5VhaMO7QfX/0G8tW/d9TQKV3uZXwOsCLw/6CS/q/oxXNk5BIK4JQMGK68eDxrkJcMybjbyAxr/c50H3uva95/TFKkOKvooKyX/LV0HIM0ag1GFcwRqLYUFjkIcvPWwFy+Y0SwyrPNWmaCbtB7JOqao85EAgHghAwYqHp4A2KBEwOYjXKVNOE6fV5lykLO0hyDM/YMHy4BHNw1AULFiwovmEpK7hzSJcv+/asfw/dqN6q/V3Z5c/+m91eUiCQHwQgIIVH88BrVAgMGvcYx+w2HsKoi4R/rkbUqRnHo6ABUsVcpjlQhkiLAvB6hXmZqdWcRr/hwwjmRyOn/DtGapFaE4tpP9j1fIhBwKRIgAFK1JkUW5kCGiaESvWnA21V3/BcENMGhQsw9DCc0Om3k2FzhblwmR5G3GQR4oiAZ5FEmpt6/dfPYWH+q9SvZ8tXS/3/7BSvQVyIBA3BKBgxc2jQENUCMhQgTi8qsi6ZHTd+K9fXccQoTLg8AuWGXBaH+k4QhYdE8vC/xQClhiygqU59Z9zyaq+kU5efP0HAVuCiyAQxwSgYMXxw0HTfBMwaSQzClXTKZ/svfpkVWGR41/NsGAZARZmWSN+WEaUsTA3M5WLCylMw4a9V8xn29eFquB4+Zwn51T8eZOqPORAIN4IQMGKtyeC9gQlMLO8cjkLVQcV7BcwkTErFi/2DAuWKtwIyBlRmowoYxFoaqoWGZoFSzPJ8D7/flFKNnKYxFcLCQQSlgAUrIR9dKnbcE1b6uSJTPcoE9Do7E37rp6jLE86LFjqsMIuaURpMqKMhb2hKVugcSf39XuuOo1xfc4Asj/MGfen3QbkIQoCcUcAClbcPRI0SIWAubXjcZY7oCIrMrqT7lCV1TT4YKmyioScIQULMbAi8QgClslDd4YtWCaTbmRySodmN4uvFhIIJDQBKFgJ/fhSt/EzZiy38cKvv1UlwBOfFm+suWKCiryuawgNrgIqQjJGQjXAghWhhxCgWFavOgNcHnJpY+3VX+Zh9+OGXPCf8btZ4/9kPOKs//JwBQRiQgAKVkywo9JwEDBlZDzCLh1NimWZdc30PRVZXdf3qMhBJjIEJFSDLOAcLElg75HOI8HEcD3cBHRqVC1SVlPg/6dfqMqzXKOt1/obA/IQBYG4JQAFK24fDRoWjMCMkQ+1k64/EExu4LpOV2zZc/2YgXN/B5plj79LyI8OgWJnc9CKRAlDiIagmMIvYCLVHzVUsqbi9l2bJ0zbvXkiNR4sJoc9cIQG9oD/1YIJf1APhBb+3qFEEAgbAShYYUOJgmJBwGp23M/1Bpz153Rq1NaUR0fqi9Nbu00/DNbOwiPm7SxTG0wO1yNHoEhBwVJRwiLXwhQuWaetKr1///27c2u2VP20Yd8oOrRvJO34ZAqtffNY2rlhIvV0p/sqYl+OQ3/Q1wXkgUAiErAkYqPRZhBwE5g29okjG2qu/CMPFd7szpM9O7WzQjWCv9hHUUdLLomSJcmabvvGv99aeu8XPrt0jyvDxx9t6WZb84OT7+KhDS4XKRYEihzBLVjFDmVDSiy6kLx16trzKp17d9VHjzz9xGZLZ4eNZs2a5doqKirocN1IajxUQlXTd1JJacNAURzh/adVVcu6BzJwAAIJTgAKVoI/QDSflSmT5T7N6ZDFY63Co7Mtm6rXT6aujswBPA0NDbR9+3bKKzBps/XCh/nCWQMXfRzkHy5d1ly87xRW3L7m4zKyIkxAxYKlIhPhZqZc8Tx98D9F3/50vULHc+75xctLmpt6XKI7d+6kF154gUTBuuiii2jatGm0c+Mk1/9qxeS9/G9GnzaOrVimUC5EQCBhCPT9rE+Y5qKhIOCbwIaaq/7MV64+tG807d06ji1WJmpra6U33vgvrVy5kpqajlo7qiYUOSrL83LefntP0F/LzQ9MvIZnQImf11FtzXcTkBtGAi9knUkP510WsMRL2l+kK9r/FlAGF8NKoFoz9xxX8M2ao/9MfoqfNLXwkR3bmq73c5nOOussuuCCC0jTNBo3bReNKq9bMrtymQQQRgKBpCEAH6ykeZSp3RHdrN3TcrhQ3715vEu5WrNmDf3gB3fSK6+8Mki5Ekq7dzaaO3p6lKJEF9xU/WfdbFrIt+1IbcLR7b2KdQo+WFF8Jjq1OXX9PBXliltVsru6JaDl99VXX6UHHniAnHovtTbmH5lVsQyachQfJ6qKDgEoWNHhjFoiTGBO2aPbmw4VbeMBQ3r66afpkUceoe5u/waqT7ceuY6bFHhKU3+bi765fQO/XBaQrr0Y4W6geDdzBSd3FSUMQMNCgI24+mXF367eolja9+12Z0Yw2Y0bN9KGjSvImtZ7LxuyDAcvDVY+roNArAlAwYr1E0D9YSNgMjl/Wb17Db355ptBy2xpthWz0EVBBfsF+OXSWnDTp19enT53reo9kAudgIqTexGc3EMHbODOHlPa/YU3Vb+keEs5y4k/pFLaV7+l/ktn/ehuJWEIgUCCEYCClWAPDM31T+Dcz//4r9U7P9rvX2LIle8PyQmQIb+yf57/nRc3p00OIIVL4SCgYp3CEGE4SAcuo0dLo79nnPP7wFKDri7lM58xGAZJ9Z+0NTd+01c+8kAgGQhAwUqGp4g+DBBoONKgFK29/4Y5vD974GaFg16TufnX+d+kLi3oCIhCaRDxRyBD7yGJ6O4vyYhSoUIoB3/3I1+NwKuZi+ivBef5fxCDi5nKp1cMzvJ/VlqWs+rN1/f+w78EroBAYhOAgpXYzw+t9yLw7hv7nioZmVntlR3o1JAVi51R2hvMxfROxsJAZeJaGAgEGibMkyju5AhDLSgiEAEeEidnrykrkIzHNVmgWcmvkeWcB/a3X+NxLw5BIOkIQMFKukeKDh0+1HWrAQons6xsSknj6KMi+N/Mk5TkIRQ6gUDDhMXOoJECQq8Yd7oI8I8J2po2kS4taT6xa8OyUzs3/uXE9o1PjfKD51jOv9DPNV/Zf+FMVad5X/cjDwTingACjcb9I0IDQyDwT75nE28zFe8VK9Y53rKsS2lta58upuxe3dHtdBRkOh1nbNTT2/nFsyltCh00l9Aox2Hv23AeJgL5zja/JeUFuOb3JlwwRGC3pZw6tUw6Nvfwn3Ti3+L828JEdurc8ASH2de3sQK2jcj0gd3c/Xz+jGt/aaBwiT6qFCbFQJkQBYG4IwAFK+4eCRoUBgJiZfo1b39VLOvsrKyseUdWPlzIIaUXOk36QpNTq+ra+JdxljTKoV6NLGYzddnMdMPoho776kexB5BGa9Jn0zmdwWcsKrYBYl4EAvlgZbKPFlJkCeyyVrgq6OGgvV6pQP5POEo1j5M7r+xsdjxy7+2Xao//413a9Gmtl6jP04c5l8O3I4FAchMY8p+T3N1F71KIwDPc190q/TWbTPTr/7fkQ14L7b+6pv9C0+mLvBfrV473/ay5ifLmSgfNI9yH2EeAgDi6+0sZARzg/d2DfGMEmkz5rhu6+R8jUMrPzdRuvPRMWvXcz+n3P72WRo9g/ct/ErPkL/xfxhUQSB4CULCS51miJ4MJiAf0vYOzhp6dPH8Kffi3n9O1i09zrWM4VGJwDo+SON05MkSIFDkCAS1YTv/KV+RalFoluxUsHxYsnyBMJo2u+PKp9NZffhxIyfot39zgswBkgkCSEYCClWQPFN0ZROAxPqsflONxcuK8yfTSw9+j6RPHeuQGPRxQsA5BwQoKazgCgRSsQNat4dSJe48SaFa0YB29o++osrSEXnzou5STleF9SRwW7/POxDkIJCsBKFjJ+mTRLyHQzdvvfKGoGjuSnn/wVspIVzJcDRThJM1DwZJg8EiRIhBIicIQYaSoHy23ydw/RDjUB+uokJ+jWVMq6JJzh8y0laFB/zMX/JSFbBBIVAJQsBL1yaHdqgQe5gjsLd7C1y05jfJzVcP7HL3boR8NvuQeQjl6FUfhJJDpFP3YdwqkfPm+A7lGCbRp2a5bOkNQsOTGy847Gv1kZHFe97hx48S5HQkEUoYAFKyUedSp2VH9rbc6r1/8uUG/mjXWuC4+58SQgDjJ1OG+0aQPGLPcWdiHkQCGCMMIM4SizP2/Jdodob0mxpePHKj1Zzd/JWPziz+9eiADByCQAgRC+89JATDoYnIQ6C6qvf3OG88fm5meNtAhiRWan2fceiUF9Ohap7sgK8cEQoocgUBWqkDKV+RalFolW/S+SPntIVqw6hs4XBanaRPK6KtfPIn4h809XeufqEotiuhtKhOAgpXKTz/J+96z4bGpPMP8RyWFuXTlhZ8Z1Fv3l/+gTIUTu04DFiyLDgVLAVnIIoGUqEDKV8gV4sZBBNw/INqdqqvfDLqdXlux0ZXxk29dRBIKhVO2U6MfDpbCGQgkLwEoWMn7bFO+Zw7NfA9DSBcQN19xNlktR18UT3BQxFCSTT86RIi18EIhqH5PIEd2KFjqHEOVdP+A6PAYImzv7Ka2jq6gRW7duZ/uevBvdOysCfSl0+cPyHNErbMHTnAAAklOAApWkj/gVO2evvm5HA4Jeqa7/+VjiukrZ5/gPqV7//wyvfvR1oFz1YMepzZgwbLqvaq3QS4EAoGitUPBCgGowVuOWrCOvibuevB5mnnObfTo394iu2PoYtu2Xjs9/PTrdNY1v6Iem53u+s4S71qHBO/1FsA5CCQLASyVkyxPEv0YRKDLbivg1WyOOl7x1VuvPpeefHkFL6nG0UKdOp17/T2uocM7v/5lGlXSNyVdCpEXw4bte6mru4dOPXb6oHJbe00Sy8eVSh2H3IfYR4BAoCHCQNci0JSULHKM/aDL/tvRP0RYW3eE/vjcf13/H9+66zG67e4nafbUCpo3vYocDift3neINn5aQwcP903aPf2EmXTKsdMGsdNIe29QBk5AIIkJQMFK4oebyl3LzOs93NVmlojRA+vZTBlfSud+9hh6+c21LjTyC/xPz73p2kYU5ZEESOy1O2hL9T7XfmLFaPrkpbtJIlS7U6097Yj7uKq3xn2IfQQIYIgwAlANFFll71tX0D1E+Ivf/8OlXLmL6Oqx0Yfrq12bO8+9l5m6P7t5CXX2OPh3jkbZGS4r2Ke8DNUtbhnsQSDZCRy1/SZ7T9G/lCKgVV3Vren6bdxplyd6R4+TOrqd9L1rv+iTQ0NjK63ZtIvWb9vrUq5EqLqmnv7+2mpP+aa9trSBNVrG2fd5XsNxmAlkBlgOB0OEYYbtozi3gtXGq59v23WAnnzpfR9SvrMu+PxxNHfaOMrJMLuUK7uTtmXauuZlzLl8u+87kAsCyUcAClbyPVP0qJ9A5pwrHifddIrdodsz00z8ZW+i+TPH02ePn6HM6DePvuyWrdN002IO05DrzpjUu9t9iH0ECEgcJn8TCdJ1WwRqRJGeBCrs+ymN/Qwduqaddd3d7zmcanHfLGYz/eSmCz2LIquJ3tMW3DAQ4mTQRZyAQJISgIKVpA8W3eojkDXnslUWs7bFY5SPbrvOtxXLF7MN22roe/c8/bPMbRnlmXMu+y/LFImcWK/G22t83YK8MBJwkO+vKF6yKIy1oChfBES5OrX7Q2qv3kKHGppO8SXjK+9rvOCzDK97JlbN1nue4xgEUoGA72+vVOg5+pgyBHTS1/7/9s4DPo7ibv+ze6cu2ZZcsY1BuNvYxnKRC8WUhBJCQrHoEAKEhD+hJC9p5A0kJLwpkISEECB5Q2jBr017X1pIAjiAseWCG6YYd9xlI9nq0t3u/5mVTj5Jt3t7fW/3mc9ntbvT5zun2+d+MzsT3th5MyeI6bBk2XUPPPnqPKWqynhlSteVUpnu7KY37SZnvDgJBIUPL4JGFlIBhdNH48QaU7Jzm14Xnz71oO00ckHfH3z9yz3jN6m6eKWnJ+9JwO0EKLDc3sNsn8DQ3j97YrjdZC5Wz3id9/LXe2jn2rIyrU6c0Wx/PopJnvSOQqDdQkS1idg26Y5SFINNCOxZv04cfn+lSWhv729c9jkxdJDxG6QrED9wvlUw5SqOp3cR4YVXCFBgeaWnPdzOwilXPg07SLdf0PJtQrmFRwzuBzKuIvSy/6h7WBTpnE4SA7u4olpZqazC4iqMiSISuPvFgxH9I3nm5+a03HL12SsQJifIHcQ/yzu6EF8omnz1w5Hi048E3E6Adna39zDbZxBoz9Gv8rcrd+Lmehz58jXym644s+7//fgv/WwikitQT7m2/n+GVbS9bzMJoyVCoB1T3M1cAMOHdKkl8NGeNrF6R4vtQlra2u8+Zt5N99hOwIgk4HICtGC5vIPZvA4CfcZffbBw8lU341Xx/orfd6yq6WP/8tLaQQjdbpfRjPL8BRc1vlxoNz7jJUagXTEfBrQaPkysVKYOEdhfH9Nem3uR7rehtDyTAAkIi5+IpEMCLiTQ+ap4uKi6F838vZ2mrt3ROq49qIscX+SJ13byYBz7BKwtWObWLfslMKYVgRnHFoh+haqoa7K1PMPdyIvj5lZAGeY5ArRgea7L2eAeBP4b97b2vGnH9jqHm209bHoUwdt4CFhZqTgHKx6isaUpyFXEry8eLDCaHs1tRoQ/RYvEcBLwGgEKLK/1ONvbk0AzPO7v6RnpfmZ5gehfzLk/kdikws9KRFmJr1TUxat5nl9RLBZ9fZgYVGL5uf8h+LR7lRHbTQJmBCiwzMjQ30sE/oDGHrZqsBwq+cMVg62iMCzJBKyGCK3CklwNz2d3+oRC8d6dx4o7zu0vhvQ9MjSLxXvxkqD4JY4FnodEACQQgcCR/5YIgfQiAY8QOIR2/gqHnEfSy500vlT84ZJ+4ugy/rv0gpNCD6tJ7lbWrRRWybNZF+Wp4j/OLBPf+nyZWL0nV9TlHStGTz1FP6os781BJ93iWS5sOAlYEeATw4oOw7xE4GdobB8cX8dRkpfrbzvr7C/kXn311aKyslIozTWibf8qoda8J3z73xNKywEvsclIW62GAQN8PydtfaLnFAltwAkiOHCq0AZNE+P7lIfKVrVdbz2Im+NCHjyTAAkcIUCBdYQFr7xNQA53fAeHXFC0ZNO7z25Rj5qeG0KiFwwUgWPOEkIecGr9DoitVRBbUnStEUp7Qygqz0kiYDUMaCW+klS8d7Px5Ylg/+OFNnCaCA6CqOo3FivsRp5Nog2eXl7zv98YO/BLf/zYu8DYchKITIACKzIX+nqXQKBm6cPlbUMqLBcg1UpGCHkEjjtfCF0Tat1Gw7JliK6DWIg02OpdgklqudUwoFVYkor3TjaKT2hl42GhqoCoqoC4mohfEOZrkIWD0f2FQhtciQV8/3hZuD+vSYAEuA4WPwMk0ItAsGD4XWa/2HtFlh74da+VjjMOMRbPGa1d+CCyVFi3fLByqbUbIcKMvaIjJqdnZALtFvsNciX3yMxs+crPa9+RHYJqkBRUk/EkKLCVNFKkYNnx50bypx8JeJ0ALVhe/wSw/b0IaH2PO6OXZywe+PUv56vIo11cZwgu9fA2oR7abByKcd4klDbLFxdjKdGVca2GAa0mwLsSRpyN0nP7QEwdJ/Q+I42zFFaanEOFYcBkOb3oqJLdG987eeiYireSlSfzIQE3EKDAckMvsg1JI7B79+4Ruq7H/3M+Uk0guLR+o40jPFhOlDdEV50UXhBch7cYc7vkkCOdEFbDgFbzszzJTvULrfhowzKlQ1B1CKmRQi8YkBYcvubdF6MgCqy00GYh2UKAAitbeor1TAsBte7jzwf7jklLWXr+ABGUx+DKI+UF2yCywq1dmyC+tnjS2mUloqzE1xGY7rzS88s6BRQsU9IiJQ/MB7Q7byoVVDS1cFYq8mWeJJDNBCiwsrn3WPekE9D14BlJzzSWDH25sHSNMY7wZErLQaE07cNyEfuFapxruu6Vpv1Caa1DdPkipHtco2q+r3ajklwjo2OoYX6UFN564SBYnwYJrfMsrw2/wiFCDvs5zekF/Uc6rU6sDwlkmgAFVqZ7gOU7i4CvYKqzKtRRGz2/Px68/XEzQUScLg/Ll1yrS22GCJOCC0Ks4yxFmRRjuA9k1168DUqRaVfUq8WmYY4NkOIpty+E00CIpcGGgJKiSZP3hoCCn+xjxMs2B4HVt6ampmTgwIH12VZ31pcEUkWAAitVZJlvVhLQ8wdirCULHSxfevEwEcRh6rRAx3pdWLNLrttlrN3Vdd2I3eTg14b1vAy/+iPhAWzXKN+C1HDIMw6l232UOWNYBkBgjpCOQ3ReCwX3fky09hdDdEAs+YuEnoNrLGopjHOxyD8IK1Ugcmt8RYNFW/mtnXVsxFkeobqjLQHcy3qjzcaho+1G/TvvI2fb4SsFjqynFETGWdZf3ncevhzUHfWV9e6sa+gs2yDQho629AyXFrnoOydbVc25YYpoa6qVY93/cm4dWTMSSC8BCqz08mZpDiawc+fO4bqi5Du4iolVTYqcPCzvhSPpg4ldgkszxJchTKQokaIqTlGR27JSCLmJUQTnyy/FGmSnRwix6WXUV4ouCC4Fm+qFxJOsc5z1tVmya6P5Gveeg8ZRYLm2h9mwWAlQYMVKjPFdSwDLJowXeX1d276UNkwKFJ8UJ8mbCdbuM5+DZRVmq52d9dWTuFyBrXJdHEnXtRNc3Dw2jQRiJpB9g/0xN5EJSMAeAbV5N1ZcpHMKgaDP3JjYZiG+nFJ/z9VD9VuMT3uOBhtMAoICix8CEugkoAcC2HSNzikEAqq5wGr3ufQtQqfAj6Me2DYnPYtuxVE3JiGBTBCgwMoEdZbpTAKKgiWu6ZxCQLMYvvOp/OpySj911SOnuKTrmhckQAK0YPEzQAIhAoqaMzR0zXPmCSjGBPnI9fBjYjqdswjgDdCcrVu3mpsdnVVd1oYEUk6APwNTjpgFZA0Bf5r2FckaIJmtqJWIylEpsDLbO5FL9/l8nIcVGQ19PUiAAsuDnc4mRyaAX+DOWyI7clU94Ztj8e2UQwuWIz8D/kMb+KKII3uGlcoEAYuvsExUh2WSQOYIKG31MIskfYWozDUoy0u2smD5aMByXO8qbYeE/9AuWrAc1zOsUKYIcB2sTJFnuY4ioOtCqXvgK4rc503rP8k4ggMmd+wJaDEXyFGNcFll6tojbgpktLKuPcrq8S5j4cTmqPWfCvXgeqF+9n7HGfeKUGqcWFfWiQQyQYACKxPUWabjCBz47fghfn8gF4uNCt+eJcaRI2uJN9m00nHCEFtSeOHaiZvtOg5oEiq0twWrrJu4fRZhJknonQiBYItQ6zYJ38FOMYWztFj1dvoxvf3oQwLeJECB5c1+Z6t7EFB97XgwRBh3CrYK9cBa4wglkRvzan1Hwro1Cmd5jBR6EV5AzMJNekNtcuLZSmBZhTmxLdlUJ6Vpn1APbe52KI27MHpux2qoUGBlU2ezriklQIGVUrzMPFsI+FQxAsOEtpzSvF/45LF36ZH4/nyh9TmuQ3AZwgsCDPfCzwUxj0CK7crKSiWHD9uDAZHj41dYbFTDYssfD4e3dhdSEFbGptlh0WK51AUtWLHwYlx3E+C3k7v7l62zS0DDL+8IBiy7yUUAQyiffWAcR9JgE+HioZ1Wrg5Ll2HtKhx8JAqvIhJoaWsRzUFrxVvX0iQG8sXPiPx6esofBeqhLTg2GYJKkRaqhp02rVI9c7O8pwXLEg8DvUSAAstLvc22mhLQFX1ExCFC0xR2AjBzvmGX8Mlj17+7Eug5JRhexLBi5/CiMdzYp1wI1Zj11RXPyxd1LY1Rm3+guQ0CK2o0b0UItgm1fpsxX0oO8ymHIaTqpFWqPj0cdEGBlR7SLCULCFBgZUEnsYppIKDAgmVtMElaJeTDzlezRgh5hJziE1rJ0UIvPMqYz6UVyXPHocHPa0ONB5tbQ2RMz3tb2sV401D3BsghPKVxj1Ca9ghVnhv3GtdynpQKMW9vrlSK+CiipO7BEaX9btxRm6ISmC0JZA0BCqys6SpWNJUEgkPmTFAPrEto/klC9dODmA+zTQh5RHB6Xr8OwQWxpWFCfbj40gsHwfjmi5Aqe7065l9Zj9nubLUOz9rWSytUU0g0SQHVKaQgqAxhBYHlSKfiR0LpeKHn958qxJ/fcGQdWSkSSCMBCqw0wmZRziSwYcOG3NY+JSPlHCxf3SdC2b9K+PavxNo+eBVda3dEpZXWOiEP8dmHopeUgriSIkvPK8UBIZbb1ziLsOsOv75CyLAcB46r4Q01Y3K1tM7g2NCYC+69WtqtLz5swqpLtRuFkO3JLUa7ip0pNGXbsPyH0X9Y2kAub9DRnx3XIvy+5aBQWj5DO9NkTu1GNNYbBS9ylIvgoGlCwxHsj0XccwqFf9cbZ1NgxcqS8d1IgALLjb3KNsVEoLSo6Hgdv76lC2KdK4EjMPZyIbQ24TuAhRSl4KpZhbksn2R2+MWsVbB+GZYNWDpsOcz10vMgtEJCrPNsrO8lF1VV/EKXZ8kE16LLD/ed16Gzwc2Ii/lj0oomD3DrEkttsLZ0iqYuv857gbAuv0BTV9U17EG/eMhfu+7NLj6qbxOH3/qBGBw8cCQK3uaUQssQW53n8GspxrqFQ5gJn3zTE0sQaFh3S8PipnoAwlpe4wDbjnMPv5A/4iiIb6QLNkM4dYonuUaUIZykiJLzn7JBMB3BaHYlradSTGkDK0Rw4NQOId8zcv7AiT29eE8CXiRAgeXFXmebuxHQWw/OFjlDuvkZN2qu8etc/kKXdiw5d0rdvxrWLYgtKbjkW1jZ6GCVU5oPGIcTq/+ZD1Y4m690HvCVdRdYeJtTkQfaR5cEAvn9DSEVlIJqUAUspRH+T3oUE8wrHdnDi7ck4EkCFFie7HY2OpyA6vNNt7OEonz7LzjsZOOQ6Y31sPa/Z1i3fDgLDO/QJU7ggFpqO5MDapntuIwYnYDuL4J1aqohpgwLlXy7NUaHOVjDY0zC6CTgSgIUWK7sVjYqFgK6P/f4WOKH4soV3QPHnGUc0k/Boo1+OW8LQ4nGStiHtwgRaA5F59kmgYM++wIrlrg2i/dONFhotb7lxk4EclFcvf/xIthvdMcwbyIU/AWFO3bsGDpixIjdiWTDtCSQ7QQosLK9B1n/xAmo+bH/TI9Qqo5f++3dfvHrxmvzxnpEnQs8GtfYioTOnEAsVqlYrF3mJbo/RC8YaOwsoHdu7xTsC0FVDENTit4+VVVVrqBBgeX+jxZbaEGAAssCDoM8QkDN6ZOaluItKzzE5CGGndJVhDGXSy4Cic1zDUuXsSDkVse8sdhV0QxdxGKViiVuhpqT3mJ7WqWkoOqDRW1zS9JaD0VRBqS1QBZGAg4kQIHlwE5hldJHYO/evUXBYDCtS6gbc7kGnCCEPEIOb68p9ds7hxblNia7sHjkPhxYDwmv+HvJxWbB8uIcLGzBlF8qNAxR63LbJSnisStAqq1SMX4GKbBiBMbo7iNAgeW+PmWLYiCgaZozHgRYEkHHsI18SAbF57q3APO4pNBSsZ+cIbga93UuRCkFGBafbJGLZrtjGQDZ8AMxzMGSbxG6zely2E6uawbx1CGihhjX8l6+xafJhWVhqXK4c8b/lcMhsXruJkCB5e7+ZeuiE+gfPUqGY/gLhJzfFew2v+tIneSaTUqzFFs4jG1TcJb3ck0muQedXI8JazEZ6zHJ9Zsc7mIZ9juodizpAJuOw1uF6vnysAZXCYbr+hiHyJPnfhBMHcKpQ0DhGksjCEV1fnusaqi3QwXSkYC3CVBgebv/2XoM1GU7BLkoqF40TAh5DLRqDVaXkgt6SuFlCC65GCZWGO+8lmLMGI5sxZBk5+KZihRkXUfHYpwKVibX4WeEdS7MCQ8jjQyTi27qcrFOeS2PCM6w0vjyscciRIc8S/Fh3OeL2hisUgEshNowaLYoCqAtwRYcrcY6WPIs781X4ockg4hRjEVSYT3E4qZywre8l/5ykVXDD2dFLrxq+OGMeIqxACvCO/3kPpEh4SQ6xVPXvbGga4eoygKrU4SeitMr0D40zpRMRgKuIUCB5ZquZEPiIaDruvMtWPE0LGIaiAqscyRw6GnbLQeirlOQdaySDiEGMWWsEh+pjhBnLdVYkV4KNruu4luipdBEJ0uBJ8WWzE+KJSmg5CKmUhzRpY6AHsTkMDoS8DYBCixv9z9bL4TcJ4UuZQSkpahzCx0bmiaI+WRaLOIK9W5urhPFZgJLCilYmEIuBtkWSsJzHAQgqrEHER0JeJuAja88bwNi691NABastL5B6G6aibeupVlO2I/NNbQ0xpaAsdNAQMO4Lx0JeJsABZa3+5+tD9Tzl7aDPgWNrUc2fbZbrdpWDAHSOYuArmEcmI4EvE2AAsvb/e/51vvaDvX1PAQHAahtwUT1GN3+Vue/GRljk7I/uq47fh2J7IfMFjidAAWW03uI9UspAb21gQIrpYRjy3xnKyagx+g2t3E0KkZkqY+uaxRYqafMEhxOgALL4R3E6qWWgE9rocBKLeKYct/YHvvrjesD9jeHjqkyjBw/AUXh3Mb46TGlSwhQYLmkI9mM+AhogZb0btIWXzU9k+rDQOx6d1cb3lI0WW/LM+Cc11C+oe68PmGN0kyAAivNwFmcswj4a9Z+ph5Y17FoprOq5sHa6GJva+wLKQSQpL0VK9bTOYKA2rBT+Ha/w1c7HdEbrEQmCfBXRibps+yME1A3Pf3b/E8WXC78+QXB/pOFNrBCBAdOFVq/0VyMMs29097aIKRYisfVtzSJsvzYrV/xlMU03QnILZp8B9YIdf8q4atZjW2aamBRVB7sHot3JOA9ArHPKPUeI7bY5QTqHhjzNayH9XB4M+VWJ9qgqRBbFULrP0loJcearz4enpDXcRPYc2CH+H8b4/tKuvOYgJgyrDzuspnQPgGlcY9Qaz+EmHoPogpH4+6eif/db/AnpytV2LecjgQ8TCC+bzMPA2PT3Umg9vdjFuJn93zT1qm5Ith3pNBLxwqtdJwI9huDDZiPMfavM03DgJgI/OOT98VDNfFZoc7o0yJuPB5WR7qkElAgnnx1G4VSu1GodR/jwDX2rjR1ujgQUNQpA7/5cS/VZZqGASTgUgIcInRpx7JZsRHQcwPXK22+6UgV2QyitQkffrULeYQcNifW+o2C4BprCC4pvPTiozm0GOIT43lxHSarx+neasgXNwawhpafSzbEiVD0ElMQVXID8BicrivKVRRXMRBjVFcToAXL1d3LxsVCoO6BURW6rv4Llqz43/vHvndy/lawn7R0jRW6PJcMRzX4r2bVF3r9DnHh+sQYPXHcQVE05ASrYhjWSaCbmKr9CJapT2IVU71Y6kL/ftk3N/28VwA9SMCjBBL7RvMoNDbbvQRqfzdmCl4p/AdaOChprcwpwvDiaENwGaJLDjMWDUX2/PcLMf5w60pxx57Bodu4zl8r3SfOGi+NkHThBOQcKTm8Zwzz1cphvsTFVHj+uIa2EreW3vzJ73r485YEPE2A3/Ce7n42PhKBw78dOzbo015H2LBI4cnw03OKYd3C8GLRMAwrDu84lxyN81FCYOjRUy7QJG5YtVfUBBNbm9KPb7O/Ha8Kf0nKus253RJoNiabyyUSBA5DVDXuEkrdJlimGlJZ76BQlGtLb9r4WCoLYd4kkI0EKLCysddY55QTqPv92HJdGCKrPOWFdStAEXp+f6FBdOnF3hBfaz9ZKn5cI4dRE3eXF+0UF06ZnXhGDsxBCTQKpb5DPClSPEkh1bCr4y2+loOZqHEbLFeXwnL1XCYKZ5kk4HQCFFhO7yHWL2MEDvxxzDBfQHsVQ3mTMlaJbgV3iC8dc7r0gsFCy+snRH5ZxzmvDMIMR14pDryJp8Q/YbxbkSm+0ZpqxFfWHBYNIjlb14GQeGJ0gygcOCHFNU9e9orWLkTLZ0Jpre04cC1aaoXaVmv4q1hnSoGQUtoOJa/QxHOqU3T94n43b5LD6XQkQAIRCFBgRYBCLxIIEdB/NyqvVlXuxsKJt8uHd1Y4RRV6bl8IrX6G6BLSIibFWJcIw3VuH6GrOTj8Quk8CwUvFfvgh23kFOMcg0jTMFIEC4vAcJQcklLaw68xRIV7Y6gKr/gb8do6/O7Ov0IsU45LKtZjlFrxm6YHRX5OrtD92NswtwTnQiGHZYUcmpXn3CL4yTPucdZyCo14Astx2HZyex49IESwHdP2cNaOXOvBtg4/eW6rEwoEkyGgpHiCkFJxGKJK+ktuWeTwX/Ca5leuHfCNjbuyqNqsKgmknQAFVtqRs8BsJHDrUw+8fv2hBacNDe7LxurHWWdISinADLEF8YVrKUBCoszINCSYMAcoVvdC4ZnioT5XxJrMVvwzm/8tbjv0Z1txwyPJtgksMqvjxQQB4SkFlNIpnHqJKd1j62jqol4Ryrf73bzxT+HMeE0CJBCZQAw/USNnQF8S8AIB/dIfjXut8JSTivUmMbp9q2fe/1OklQZDWEqwFZaW5g7rVNthWGNglZEHJqgblpsYPwQ7/UeJn/b7phsOoyEAADg1SURBVAimaChzc86xYlT7djE8uCemmsn2KsEWWJ062yjP0iKHdhr+cjjPEFZZYs2MqfUWkRXlTUA4s/Sbm9+wiMUgEiCBMAIUWGEweEkCZgSOrrq2PKD4z1ued4L4IHeMmNL2oSjSY7famOXvJf96tVh8r/T7os4X36rtdlktzz9BVLauEf20w3aTMF4PAu2KP6Dq+i14S/Cmgsq6uh7BvCUBErAgoFqEMYgESKCTgK4qm0MwVudOFF8fcI/438LPi1Ylhjk7oQw8fIZIFT/pd4vY5R+ScgpNSoH4z9Jvi4Nq/OvGprySDi1AE6pYkj9d3Fn27V+V3bzxASVrJiA6FCir5UkCnIPlyW5no2MlMOfZJccENd+2nulKtAZxTvOb4rzGf4r+GiYu05kS0DGw+qu+N4g3CuaaxklFwEgMFd772U9FgY6tdOgsCUhR+vfCU/Dj4UyxzzdAqIpWsfSiOastEzGQBEggIgEKrIhY6EkCPQjcpauVE6vlmGBEk5VfBMW85qXi/Ka/C/lAp+tOAENN4l6Iq3/nz+oekKa74wI7xE9q7xMDgniLj64XgT2+QeKFojPFPwpOFs1K10K3B6svqhyIhUQ9NuGsFx56kEBcBCiw4sLGRF4kULlo2Ua0e3S0tp/Q9oG4oPFVMaN1LWw2fDYdxpyruzEsuD53XDR0KQ2XFsY7a38jxuAlBboOAutyx4vni84Sy/Km4pPa/XGA+4XL51deTFYkQALxEcA7yXQkQAJ2COCBsxmCKarAWpM7Qcjj6MBuWLReEye2rBB9tHo7Rbgqzm7fYMMq8s+Ck8KtIhlro5yLdUv/HxsT37/c+HchhbAXXYNaJJbmVQi5TMbmnGNMEWB48F+mgQwgARKISqD7T5ao0RmBBLxLABasP6D1N8ZKQFqx5LBhRdv7oqL1fTGhfaPI1fG6vwvdIbVErMqbJN7CUGA13rjsaRVxUpPLA5+Kzze/Jaa1rhMjIIbd6uTw7IacMWJ13vFCvqDxSU65rX7RdeW45VWVNPe59YPBdqWcAAVWyhGzALcQgMD6Ntpyb6LtydXbxKS2j8XUTsElH/TZOpQo3zb7MHeUWJk7GcJqMh7ex9p6eCfKMNnpBwYPGgJ4OsSWtGzJlxey1UlRuyVnBMRUh6BanztWtMX+tuuW6vmzRmYrA9abBJxAgEOETugF1iFbCGxKRkXlw05aeeQhSoSxTlNIbI1t3yyOCu4XOXLrFYe5oPAZyyts9R8ttubgwHlDzljRoGKbmSx3Nb7+4rWCU4xDil25mOyo9m1Cit9jAzuNc7HmzC1t5OdpNyapf5QzClaqiYaV6jAsiQm61xNMz+Qk4HkCFFie/wgQgF0C/kBgRcCf/H+ZOrWPeDN/jnHIusgHvLSoDMO2PEMD+3Dea5yH4pwO8SXfIqtV+4o9/kGGiNomBRWOHf5hQg43ud1JC9DGnOOMI7yt/YO1nYLrU+N8TGCXKAvWib6YX+fDW6SpdLJP5Jt+u/2DIaZwhM64PujDBt+oczIdXhzk/KtkAmVeniSQ3P9KTyJko71EAMOEW9De8ky1OSS+5J6IwyC+yrQ6WLvahV8EDKuXfNBL65cf27mE/OTZD78cnOWQnhRP8pDCTh61WFG9rtOvFvdxDCdlCocjypV9UgLrVj/tkCjFIVeODx2lQXl/SJTojQb7AKSYXGw1dJaCFb1j+Bm92BnWhg2392MdqpCYkv2VRqfrPmXg8gsqD6axTBZFAq4j4P6fo67rMjYoowQU8Q6epxkTWNJSIR+88liDCct0mScg+0QuRSGPHWJY5iuUYA3QnjUUVwlCZHISAAFulcOPAQnEQADWirdjiM6oJJB1BDg8mHVdxgo7lAAFlkM7htVyKIEALFh0JOBmArrg/Cs39y/bljYCFFhpQ82C3EBg2cWzPkI7ODfFDZ3JNkQi0KjqGq20kcjQjwRiJECBFSMwRvc4AYyf4M2QNzxOgc13KwFFPLW0ao7cc5OOBEggQQIUWAkCZHLvEdAU5XnvtZot9gIBXVUe9EI72UYSSAcBCqx0UGYZriKgtOgvo0FtrmoUG+N5Anh78F28PbjW8yAIgASSRIACK0kgmY13CFRfMeswlmrgRGDvdLknWqoKjdYrT/Q0G5kuAhRY6SLNclxFAL/2n3NVg9gYTxPA57mmtKj2GU9DYONJIMkEKLCSDJTZeYNAnmj9P7Q0tfujeAMlW+kMAn959ZxzWp1RFdaCBNxBgALLHf3IVqSZwNtVJ9dg0dHFaS6WxZFAKghoakB7KBUZM08S8DIBCiwv9z7bnhABXVf4UEqIIBM7hMCryy6dvc0hdWE1SMA1BCiwXNOVbEi6CRQMbH4BZe5Md7ksjwSSSkARnNyeVKDMjAQ6CFBg8ZNAAnESWHzqqQEMEz4cZ3ImIwEnENha/X7l351QEdaBBNxGgALLbT3K9qSVgOrTHkGBXBMrrdRZWLII4O3Bh8Rdipas/JgPCZDAEQIUWEdY8IoEYibw7gVz9+MhtSjmhExAAhkmgM9ta7Dd95cMV4PFk4BrCVBgubZr2bC0EVDEb9NWFgsigSQRkAuLrrps+oEkZcdsSIAEehCgwOoBhLckECuB5RdVrsTK7s/Gmo7xSSCDBA60+PN/ksHyWTQJuJ4ABZbru5gNTAcBXVN+gHIC6SiLZZBAogQUXf/RmvOn1iWaD9OTAAmYE6DAMmfDEBKwTWD5JZUbdUX5k+0EjEgCGSIAcfX+0eJT+XIGHQmQQAoJUGClEC6z9hYBpU3/MVrc4K1Ws7VZR8AnbltUVcVtnrKu41jhbCNAgZVtPcb6OpZA9WWz9uHNrHsdW0FWzPMEsPvAi8sunP0vz4MgABJIAwEKrDRAZhHeIdDSnH8vhgo3e6fFbGkWEagNCt9NWVRfVpUEspoABVZWdx8r7zQC666a0qgq2tWoFxdvdFrneLw+2HXgulVV03d4HAObTwJpI0CBlTbULMgrBDAEs0Qo4pdeaS/b6XwCsKr+cdn82c85v6asIQm4hwAFlnv6ki1xEIEGreROrI211kFVYlW8S2B9YX3Tt7zbfLacBDJDgAIrM9xZqssJbKia2IaVsq9EM1tc3lQ2z9kEmpSgfvHia07l59DZ/cTauZAABZYLO5VNcgaBpVVz1qMm1zijNqyFFwlgaPDGZZfM/tCLbWebSSDTBCiwMt0DLN/VBKrnz1qApRvucnUj2ThHEsCCoj/ENk6PObJyrBQJeICA4oE2sokkkHEClYuWPY1KXJLxirAC3iCgiPurL5p1qzcay1aSgDMJ0ILlzH5hrVxGoKCh+RpMel/msmaxOc4k8GT1hZW3ObNqrBUJeIcABZZ3+potzSABOck4IPxnYbjw3xmsBot2OwFdvFIwAGJeUXS3N5XtIwGnE6DAcnoPsX6uIYBFHg/1Lzp4JhrE9Yhc06uOasjiQIF//uJTTw04qlasDAl4lAAFlkc7ns3ODIFXzzmntXpD5Xysqv1QZmrAUt1IYFph096XR256Z+W505rd2D62iQSykQAnuWdjr7HOriAwa9HSuzBkeKcrGsNGZIzABaV14qZB+7F5gJDHyy3B4BWlU6+py1iFWDAJkIBBgBYsfhBIIEMElg779BdH57XdgeK5b2GG+iCbi5WC6oaBB8Q3O8WVbAsmXn0hz+dbUb/28eOzuW2sOwm4gQAtWG7oRbYh6wg0rnvsBkUov0bFC9+uLxZ37zlKtOv8d8y6jsxQhf2Yw/6dIfvE5/ocNqtBIya6f7Vw0pULzSLQnwRIILUE+I2eWr7MnQS6ETj84WP9/e3Kn+H55fCAtU0F4o5dw0SjRqNyOBde9yZwVE67+NHQPWJcvo3db3T93oLJW7+rKHfRStobJX1IIKUEKLBSipeZk8ARAs1rnzxdV4KPY6bM0CO+R64+bcsVv9g7WGxoLjjiySsSCCMgLVa3Dt4vClX7egnDhn+BJes6hUs3hJHkJQmkngAFVuoZswSPE9BXPpzTnFvwU2C4HYfl/5xcvOj52n7iTwcGiBZaszz+yTnSfCmopLCyGBI8Ejny1W8LJ1/FxUcjs6EvCaSEgOWXfUpKZKYk4CECtasf7YdJxy+gyafE0uy97TniXlizVjUVxpKMcV1IQA4F/ieGBIdiaDARp+v6j4umXH1XInkwLQmQgH0CFFj2WTEmCcREoGntk8MVRXsVVqm43+h65VBf8eD+gZybFRN5d0Qu8QXFtQMOivP61VmbPWNprqJczInvsQBjXBKInwAFVvzsmJIETAk0rHtykiq0VxBhuGkkmwEHA37x632DxLsNxTZTMFo2E5Bfymf3PSSuxxIM/SCykuzqFL/vhIIJl29Pcr7MjgRIoAcBCqweQHhLAokSaF7/xDyh6y/ActU30bzC079+uET8fv8gcSjoC/fmtYsIjMxrbfv2kH254+28IRhvu3VlScHHeacoVVVJV2/xVonpSMCNBPhOuBt7lW3KGIGmtY9fgrkuryVbXMkGnd6nXjxRvk1cg2GjPsm3bGSMGQs2CGyZU9j4m0eO3XYgpeJKFqXoc5vHtf4HuZMACaSWAC1YqeXL3D1EoHnN4yfqqliMJqfcxNSqKeLFQ/3EUwfLWuuCvjwPYXZbUzehQfcUDGh+Qm7SrL+7sKClpOVWLMn+3VSI9C54ijhQUJ8/QplTxb0Lu6DwggSSS4ACK7k8mZtHCdSte6o0VwTXovlHpxNBAKu/P3pgwD/+Vlt6LB7KY9JZNstKgIAiNuq68rNj9O1PLYowVNf43tNDVX+7tITG/YJEtNqh/BuLplz5x2jxGE4CJBAfAQqs+LgxFQl0I9C07olF2Anuom6eabzBNjuXff7j0fI9/u/jlbOKNBbNomIggM29/63q2h+PFp8+E0lYhWfVKdpfgt+ccP8kXm8qmLRlLFd5TyJRZkUCYQQosMJg8JIE4iHQsvqp0ZovuDGetElI8ymsHK8rGDEsnHTVczK/mc9Un6no+ndweSoO/o9LKJl1B3VFeUzT1EdWVs34OJaqYJHawpbcwmd0oZ8dSzq7cTVFn1I86ep1duMzHgmQgH0C/PK1z4oxSSAigcb1j/1M0ZUfRAxMjacG2fQ8tNOvsabRu2ZFzF747rCg6quC2LoEcWaaxaN/SghosFa9jWHbR/oXH3z21XPOaY23FP2T3+U1t/T7F/I6Md48TNMp+gWFk67GZ4mOBEgg2QQosJJNlPl5jkDTusd3otHD0tJwXbyp+pWv5U+8Uk6Otu1mLqwuV4R+MRJcAnE2xXZCRoyFgFwR9DWhiZdzRdvf3646uSaWxFZxO4cLpZgeZxUv5jBFuR0i/d6Y0zEBCZBAVAIUWFERMQIJWBOAwMIoXcpdm1CUOwqOv+K+RDftnb5wxVhV0S6B4JKWreQ+sFOOwXEFbADHl2EpfLmorPFd+SZgqmrYvPrRY3WfbynyH5LEMn6JPQq/m8T8mBUJkEAnAQosfhRIIEECqRZY+Cd9P6jol6dirkzlM8sm422ycyES5PDTbBz9EsTh9uQtaOCbOF5SAvoryy6dvS2dDW5c+0SFouj/RplJWdZf0cXpBVOueiOdbWBZJOAVAhRYXulptjNlBFIqsBT9/oL8Q99VRt8c9xwe2w2/S1crj68+XtH0uULFfB/M+cE8ohG207szYhua9REE6LuaUF/26cHXl1bNyejaUQ1rnzhLVfQXUS9/gsj3FXyUP4wruidIkclJwIQABZYJGHqTgF0CEFjLEXeG3fg247Vh4vz1BVOufNxm/JREm/H08qOVHP1ETJSXFi55TMCR6IM9JXVNQqbbYc1bh+HT9RCW6zVFXV/Uv/HjVA77xVvn5vWPX6vr4s/xpjfS6fq9hVOuvj2hPJiYBEjAlAAFlikaBpCAPQLNa5+4Slf0x+zFthWrRqja+YXHf2WJrdhpjDTvzTf9TfsKj1P92liIEbmw6VhYusZicre8TubcoFS2qhZ1Xo86G0LKJ4LrtVb1/eorZh1OZaHJzhsi6/sQWffEky/Wp3288MDR1yopnDMWT72YhgTcRIACy029ybZkhEDna/Q78dAekGgF8A/5vggGv1gw9ZptieaV7vSVTy7ro+crY7CQ5liUPRrHYAyrlcH6VYbrMgia/sZZiBKck+3qkGENLE81GM47claO3MMyVdMucvasunD6nmQXnqn8sMDtTVjg9nco3/53uS7uK5h85e2JviyRqTazXBLIFgL2/ymzpUWsJwlkgEDj2sduxANLPugS2YfwhYLc9quUcdfWZ6AJaSty2sMrc/IGtpbqmlIGUVoWVHyG4IIQ63gbE6tqKr6O66DmM/xkWMgPc8R0vLWnQcjVBRR/jTggDqy6Ybpcxd6TrnndE5cD2V/R+GhDt43QYd8rnHzlA54ExUaTQJoJUGClGTiLcy+BprVPztKFdh1WVb8UrSyMoaUNSHNrwaSr/juGNIxKAl0E5GdPKNrP4XFKl2e3C/3/FJ/yzYKJV+3o5s0bEiCBlBGgwEoZWmbsVQJNax+7HWtW/dJm+99Vhe/K/MmXb7EZn9FIwJRAy7rHzggK5bv4Yh+PSLkYOPwYtr/7iiZf+YJpIgaQAAmkhAAFVkqwMlMvE9AXLvQ1jWv9b8wFutqCQzveErwr/+O8X/A1eQtKDCIBEiCBLCVAgZWlHcdqO5uAnDLUvP6JX6OWmITcbW5MM6xbj2Ie0b1Y4HGrs1vB2pEACZAACcRLgAIrXnJMRwI2CGBuzHCh6nN0XStVFfXj/HzlPWX0FVm1HICNZjIKCZAACZAACZAACZAACZAACZAACaSWQCKvlKe2ZsydBEiABEjAjIA6Y8aM4aWlpS01NTVBs0j0JwESyBwBDhFmjj1LJgEScCGBadOmjUOzTsM8vJNUVR2Ks1xotRRHpHWqWrB+2ioct65YseLTaDgqKiq+iLh3It5EHPk4Ajg2wu/nK1eufALXCbtJkyaV5ufnj0eeB4455pjNixYtooBLmCoz8CIBCiwv9jrbTAIkkFQC8+fP923durUKYup7yHhyrJlDzEAfrbTczxLCTe49eK1Z3sjjOeRxEcJ1szhW/rCIDdE07T7EuSwsHvZn1G947733Xgvz4yUJkIANAhRYNiAxCgmQAAmYEYAwOQ7C5HmExyyswvP0+Xxjly9fvjHcL3QNcSVFz1Ohe4vzLatWrZI7CsTkJk6cmAur1VIkqoiQUFrJTkS+1RHC6EUCJGBCQDXxpzcJkAAJkEAUAtOnT58HcbUC0RISV7KYQCAwx6K4b1mEhQfdEn5j9zovL+9yxI0krmQWfljH7C6ca7dIxiMB1xOINCfA9Y1mA71HQA7hbN68Wc5bGYGHxYf4Nb7ZexTY4mQSCLNc9UtCvkFYsP5uko/8ITzBJKynd/nkyZOL1q1bh30H7Tv8T0yxio1hQstwq7QMIwGvEqAFy6s976F240E4Y8uWLe/hIbIWx4to+ieYLPwQzhwi99DnIJlNlUNqsFwtQp7JEFdYe1Z5BZPc90aqI4YH5WR2edhxCqxRxubZdiKH4kBADQ5dm5z7jho1Ks8kjN4kQAIRCNCCFQEKvdxDoNPKICfoyre4Qg7PM+UGiKxlmLz715AnzyRglwBETBXimg2p9cxGg8duHNvkGZ+9rknoEDat8FtXXFz8B5wjOlhbmyCy5F6VIyNG6O550EyodY/W/Q5vOyqoS3fPHnfDhw9XNm3a1MOXtyRAAmYEKLDMyNDfFQSCweBteKCFi6uudsH/VNz8tcuDFyRgn8A3bESFZtF/dfjw4R9BmEghlYh7GYlvtpGBjEdHAiTgAAIUWA7oBFYhdQQgouaa5Y6wQWZh9CcBMwJTp06dgM+O1YR0mVSKqy/BQiqHpBN2LS0td+Atvy8io3KLzPZhHpfdyfAW2TCIBEggGQQ4BysZFJmHkwkcZVY5PAA5B8sMDv1NCUDEnGQaeCTgnWSJK5nlhg0bGvx+/8n4zC44UkS3q5cwzDcHyzwc7ObLGxIggYwRoAUrY+hZcBoISAE1IA3lsAgPEYDImW6juWZCyEbSyFGqq6t3IuRSWNC+BwvaJBzlOHZgsv0GiDlOjoqMjb4kkDECFFgZQ8+CU01g5syZZZiDxc94qkF7L/9oAivY+YZhSsisXr16OzKWBx0JkICDCXCI0MGdw6olRgDiamBiOTA1CUQkUB7R94jnRxBBNUdueUUCJOBFAhRYXux1j7QZVgROYvdIX6exmfI7s0+U8hqihDOYBEjAAwQosDzQyV5tIiYjU2B5tfNT1O4TTjhBiis5t8/UYV4UBZYpHQaQgHcIUGB5p68911JMRuYQoed6PeUNjrpyOz53FFgp7wYWQALOJ0CB5fw+Yg3jJIAHHS1YcbJjssgEYBW1s2VNY+TU9CUBEvASAQosL/W2x9qKoRoKLI/1uROayyFCJ/QC60ACmSdAgZX5PmANUkeAQ4SpY8ucTQjActpsEkRvEiABDxHgGkEe6myvNVUOEcKa4LVmJ9Te2QvfLVB8+qB2kTNI0fTBQhd9fCL4me5T9gfbfDUD+h7Y/+o55yS6r17UOs7933dKtFZ1sCbUIUIVg3WhDERdDmJ6+Vbcb11+QSVXLI9KkRFIgAQySYACK5P0WXZKCbhxiHDatGk52DJlMFb13gV4eqIApz278ii/HrgAuwbNV4Q+TROiWOCPKv9IB30KkSP/CNWvic8ay0TlomWHdUWpUXVtHc4vaZr6yoqqmXs7EsT3d96bb/qbagpPVlT9PLTqi4E2cVzXu3poJerWkbE8BYVRB3htxZ0UXOsQ4U/VF87aGV/pTOUEAvPmzctfvHhxixPqwjqQQDIIUGAlgyLzcCoBpwwRKtOnTx+DdblGY7+4XXV1dR9s2rTJlhUI26KcjjRnAPB4HONwjAwEAn4IrVoIyOtXrlz5bDzwKxcuuxKi5HqhBeRm2GqXgLGXWR9F1/vAqjQSIud8FaauWQuXrsT9S5rP9+SKC2dssZcNhNLflg0WOeLHzQfExYqi9wvpKBvp+6D+UxBvCtJ8GccPIPwWaar6mxUXzlxhI33WRpk4cWJuYWHhbPl5wmdgFz4PS9esWVOXjQ2aPHlyUU5OznWo+/X19fXj8LlehXZ9DQu1rs3G9rDOJBBOgOMn4TR4nTUEZs+eXdbe3v5fGAY8DZUegCPSZ7lvlAYFEB7tjS8Z51M8yB6CmHk4Sn69gisqKmYh7R8QUBEWuBv1vg37xy0M8+t2iQfNOMT5NdKe3S2g+017W1vb4PXr19d29za/m/HsiuNULfgnxJDcUuGkBeKesqLPfmk1lDhx4YbcIqXhVgi7HyJ+SVIrooslsGr9pvr9yufFXUqnKc5eCeiv8xHz++B+LM45OHo6Hzyi1VeKZ6t5WNIOtwv9+zg+A7/qWYDVPQT3yRDcsv/GhMU7gPp+PV6xLfPBD4AFqM/FYXn2uiwpKSlIpoUJn/EBqPerKHd6j8KaIbKmQ2R90MOftySQVQQiPZSyqgGsrDcJ4Mv5frT85nS2Hg+CKXggrrNbJuo4EnFX4oi0dpKGh8u5eCi+Gp4fFrLsh6UAfgK/b+CIamFGnb6KOj0anofZ9cxnqm+D5emnCC80i5M0f0Vs1HT1xhXzZ77eM09Yz6bpqvI/qIvkk0r3HITeZVZCL7zwSZMmlebm5u6BX164f4qvT1q1atU7dsqYMWPG0RAe8vMX6fPUDv9ZyOs9O3n1jJNugYX/jRGowz9wjO1Zl877N9CW003C6E0CWUEAkyvoSCC7CMi5GqjxVemuNQTRtbGUCfHzNcSP9DCU2agIvz08Pwz9FGN+1T/h900cUcWVTIs6nSfP0dzMRdU3QND8GvFSL65kZXQxBvO4/oVhu/8Ir1vls8tmwdb4ehrElSz2gs8ayl6VE+bD62B2jaGq+QhLp7gS+AxcY1afnv7YW/Mm+Jl9nqS17bs90zjxHkJxIur1Lg4zcSWrPQsHDQCSBF3WEqDAytqu827FMUwhh2DqMkBAWglsO4if46NEnhoKxy/6nPz8/GfwwO05XBKKEvGM+BsiBvT2TLsg7azCL2ctWnq5vJ7x7PKTMVleCshoQ7cy+gZMoP8jhhB/g+v78Kj9FeZ4/QJP3EU4299IWRGnBlr9i09a+NZAmamVQ381WIWnIgxlNtrN18bnKdrnzW5RKYuHIU45d+wtFDAsSiH7ES6HUulIIGsJ2PqVnLWtY8XdSgC6Qv8THjg/S2cDMffF1lBcqE6oYxHqGLqNdM7t9JSR/ozjzEiRrPxQp2etwkNhECp25mk145G2BGLmDaTbizQ+vF0oJ8D78CahT54xEf0YXFfgWorDPqH8Lc4KBNGjEFnDdU37EeJZWdBqEffeoO57clXV9B2meaJSlc9WT0Jdb0WcK3FYf48poqJN5C5APMshJwwPPo85bVK4m1mJEJR099cYcuwfJW608CjJUxuMYciz8T/xDEqx+gyEKiGtrXQkkNUErL+YsrpprLybCWDe0T34wpYTZM+HiJmBcyQl8zkwsLLSHkD4KitOyLcV+b+FX92vYk5IsifdYsEBzH6vqLgOp1gtTEHU7T7UabVV/UNhGK67Jyh8Z0AYhQ+ByQn88o2710HpjbKCz961O18JY1vKjOdWTPdpwa9CFF2KPKysUjmI8/NQXUzOD7b68+5Yc/7U6JZJqLxqgaUZhPjqzIXVd6NNf4UoPNkk35D3aYj7heVVlS+HPHqely5d2ow5cOUYpj0PbM9FeCQBWQT/E3um7XG/Hfcf9fALvw0gfzlE9lIsc/rCM8i2a3zGL0eb5Q+USC8OdGsO/t/+gLmJv+/myRsSyEICkR5KWdgMVpkEehPAsJt8oy1cUPSM9BoEylk9PZN1j4fKYjwsTrHIrw7ll6GeUriNM4lXhwfTJ8hnY+f5E5w/zsvL+0AKApM0Eb0xyX061q66DENvUlgt9ucE3l7ypRPrI0aOwXPaiysL/S0BaU28BUfs3ykY/qu+aNZ3YiiyW9RpD6/M8ZcF5AP5hm4BvW8+GKHvmLyoqsoQtr2Do/ugr2Q/fRgl5v3oV2ldS6pD2cuQYaVFpvtQ7hCLcNOgVE5yR73l5+I3OKJ+NvDZvkP+eDKtKANIIIsI0IKVRZ3FqrqOgNY5bNJTXAUgqBbguG/FihVrktXq5RdVrkRe8kiqW/XF6U3I8DZMaH8Vlqr/62Eli1bWfYmIK5n5qhumt8Oi9o3KZ6pH4/Y0iwIn7BAj5IsKj1jEYVASCeBHxk+R3R02spRWveshrv5qIy6jkEBWELAaPsmKBrCSJJDFBIIYerytR/3fw9tiEzBEcmUyxVWPMlJyWz1/1j/wdqD9N9kUcT/SdHvLMO6KYdhQC6hfQfo2yzwUcZ5lOAOTRUCF5eoR/EiwI64aEe88iqtkoWc+TiFAgeWUnmA9vEigFA+WM8Ia/ueWlpbZWJX7kzC/rLqsnl/5O1TYzpuNuxu0kriHBSNBWXHpzE/hb71OmYIteOhSSmDUqFF5sMwuQiHX2yioBi9qnNpzPTgb6RiFBBxPgALL8V3ECrqYQNcQPYTWi5g/c8OGDRusLTBOhwFLEuZ4vRatmhhKvH9D1cRUtNXypQW8eVguJ+hHqx/D4yMwd+7ckr59+8qXTy6wkcNmxJsDS6180YKOBFxHgALLdV3KBmUhge3Nzc2Xod5aFta9V5UxB6vX6u09ItVjKYaHe/gl51YX70XJKH/ugiVHRYnD4DgIYF/BQbDALkbSU20kX4WtruZgWHCTjbiMQgJZSYACKyu7jZV2GYE7YblK+yKXqWLoU4LRhggfwTpXh1JU/mfR8m3NyyuLFofhsRHA8hbHYiX8d5CqwkbK1yDE5q1bt04uJkpHAq4lQIHl2q5lw7KEwHYMDT6RJXW1VU1Yp6zWxBJKQH/AVkZxRIL1bES0ZLltbTEtbxEtP6+HYzL7JOyfuQQc5Fuc0dzj2DT6XDf9oIjWYIZ7l0DXHBDvImDLSSCjBOT8E1cMDYYoYhZWGeZYhW57nvcsu3T2tp6eybrHJtIjom2w0pqTJ5eVoEsCAUxmn4t5VC8hKzur3/8cPya+n4RimQUJZAUBWrCyoptYSbcSwMPpfRe2zXwITherU9bejsnrn4+S/75VF07fEyUOg20QgOXqC/j8/hNRo4krDS9xfJPiygZURnEVAVqwXNWdbEy2EcAr6t4SWErUSehxd+HMZ5d/Cdar8VEyeCNKOINtEIDl6iqIq/9G1GjPELnV1OVYhsHWnpk2imYUEsgaAtH+ObKmIawoCWQpgcwKLFh9TnhhTd+C9uYBmk8doAeV/tiXcICqaf0xzBfE0YCVFxqNs6o3akG1NjevbbPVFjuaoh6LYcKI3YE5UimxYJ39yit5BxvFjyIW2t1TWlzoEiAAy9W3IK7uRRam48Cd2cttns6D5ertBIpjUhLIWgIUWFnbday4CwgEysvLN+HXfVqbMnNB9RhV1eZjvaqLxDPVx6NwP0SRMRMMYkrIOUwIM+oEQXTkjJliqqKJQJtfYFucvQiQC6J+gjgb5Rla7aNArf8TRQ/MNhJF+BPQ/dHeMIyQytpr/sKFvu2N/R9HPaZaxxSfFejNcgFMujgJQFz9HEntrNa/E9bZs7DEVdL7O86qMxkJpJ0ABVbakbNAEugiEFy0aFHcGw935WLjYubC6nKIo8thiZoP+TQZZxupLKPITYXlcVJXXsgSmy7LjaTN5nYG9Fpli2WuMQZWPrts1nZNedCGuJL2lgcWzz+1IcYiGL2TQENDw59weYUNIBv8fv9Z1dXVO23EZRQScC0BCizXdi0bRgJCSOsONji+HWuX3wUhlJcGJlbfKSoE2CpYv3agHtshinagTtth+druE8EdSz+YvUfcBROZhZNDgXUN/cbA4nY6jGtX4v3LCuRjkaIraBeGPe/vuuNFzAQw3GdHXFVjL82zMCxYF3MBTEACLiNg9WXosqayOSTgLQLTF64Yu0MJPoVWT7MpQlINSFq2JnUekEWdw5AYltRg9KqcWB0Qi5btQvg+WRG56Q6GKlUjomJYxfp81iiORbIOC5l9I1w7spq/tGpO1EVIZbl0CRE4Njc3dxByoMBKCCMTu4EABZYbepFtIIEeBKYtXDnCpwTegPfQHkFOvpXfR8d0Hl3zwBIczQxAyF23vKpyqZMbniV1k/OvvhelroNhwXp96tSpJ65evXp7lLgMJgFXE6DAcnX3snFeJDB74btlmhJ4DW2PVVw1QszsgDlph3HGlCpYvgZCoEiLxEAc8lyEI1vcQdi65i+/sPLNbKmwk+uJFdh/fPjw4Twsu3BblHoOxwT31zEh/iQMFXLNsSiwGOxeAhRY7u1btsyjBDA/SU5GHmez+R9DQD2t6eqClVUzPo6WBuKtQPHpg/A24ECIr0FIO1DVtSEQZMMxDHc00p+Ko0+0fFIcLrfCeVQLqD9fcenMT1Nclqeyx+bM34Zwkv17bZSGj0T4vxD3FIisA1HiMpgEXEmAAsuV3cpGeZUABNAkzBI/30b76xHna9XzZy2wEbcrCuYxSfEih34iDv9gAvs6hMl5VpGcfINQDgH6IgUmwa8Oc7b+kKe13v921ck1SciPWfQmoEMwfQ3CqQRBVb2Du/lMwN1riHsa0hzqFsIbEvAAAQosD3Qym+gdAkHF90NYlpQoLV4Pi9OF1RfNkutYJc/BhIV1tUaZZHgYYm7kvEffzG8sKhqHOk7AmlvSylaOSezlqE85ro/CEa3uoezlq4PbkM8aTJBfK8/+3MAbVgughhLynDAB+aanfKOwGMc5UXKrQPjLkydPPnPdunWNUeIymARcRYACy1XdycZ4mcCc55YMCgb1i6Ix0H3KlcsvqEyuuEKhMxasGI6NUwpMyv9Q+i++5tQWnNZ0HtKry8klGGoaBh7r8wVLsaK84lOCCjZvVuQ1LFPGtT8YULDifKtoFh9UXzHrcFdiXqSVACxS7bNnz76ovb3971i+4eQohc/FulgvjBo16txNmza1RonLYBJwDQEKLNd0JRvidQLBoG82GJgt8mnggaXnpeoLZq1NCSu/GGORb9S5UK+ec458+H5skQeDHERg6dKlzXPnzj23tbX1DYis6VZVgz4+o0+fPgvnzZt34eLFi+VitHQk4HoCll/Grm89G0gCLiIA8TQnWnNgEfpZtDjxhvv0oJXA2h9vvkznXAJLliypl1vioIZRt8SByDoPbyE+gbh87ji3S1mzJBLgBz2JMJkVCWSSAN7okxYsc6eID6svnLXMPEJiIXh7cbxZDhB/nHRuBifL/ZcvX34QTfgcDvkSg6WDyLoEk94fRiS7c+0s82MgCTiZAAWWk3uHdSOB2AgcZRldF6mbZHyXrqpC+5JF+fIhTOdSApiTtcfn852B5smV+KO56yCyfhMtEsNJINsJUGBlew+y/okQkG9BuccpmGJu7VK2sfSMiStOhQVthFnxeMEwmxYoNWsG/S0IwJK1FXOxpCXLzrpXt0Bk3W2RHYNIIOsJUGBlfReyARYE2izCZNCAKOHZFayLHMsK6yJlk4sxBHiNZdmKy1hbNta7gViIVL4teiYOO294/nD69Onf8S4tttztBCiw3N7D3m5ftDfX5PYvbnLWG+wq2AQnBU4uDwGBdUGUrOdFCWewSwhguPA9WLLORXPkorSWDvF+AUvWjZaRGEgCWUqAAitLO47VtkVgW5RYpfPnz/dFiZM1wVgpKtoE9qmVTy5L+jY2WlB9CJDM1r8K8Zs285nqL4dueHY3AViy3oZ4kqI7mhVZgngAlqyr3E2ErfMiAQosL/a6d9q8LUpTlc2bN0+MEid7gnURTWAVizzx1WQ2CKLpUsy9srM1j1B0/ccCk+GTWT7zci4BiKy/463By1HDaHP/8NHQ/wKRFXWRXOe2ljUjgd4E+GXXmwl9XEIAX9rbojUFDwDX/HL2BYKvQOy0Rmnzz+R+hVHi2AqeuaB6DJ6MD9iK3BFpcuXE6n9Oe3al9duOMWTIqM4msHLlymfwf3g9aim3NrJyPsT7G0TW2VaRGEYC2USAAiubeot1jYkAxNM2Gwkud8sw4ZJLT9yNuVB/jtLmQqxX9SIsT5Yrb0fJQ2BT5y8pPn0F4pVFi9sj/DSfFlxb+cyyaHvY9UgW+XbaiysLKxcuuwj5LUCdXpm1aOl3aSWLzCpTvrBkPYqyb7NRfg5E1rMQWfNsxGUUEnA8AQosx3cRKxgvAU3TttpIO2Tr1q0PukVkqbr2X2iz3O/Pyh0Dy9O7ECTfFnKD5hjctIdX5kCc/RRJnscR13wuiMCBsGe8jPI34PhPiKPRMVRBTH58bdGshUsvRtpF/pZADZasXIT8LkYeZ8OC93NYyX4fS36Mm3oCmPh+P0q500ZJBRBZL2Lie6WNuIxCAo4mENOXq6NbwsqRQA8C2PfMX19fvx3eQ3sE9brFl/r/YcuPu4qLi9cna6+0ioqKxbCindKrsCMerXjw5B+5Tc4VBMsVEBxyS5KoDkLrfWyk/DforAXLqypNBakcVkS8azShXmEIJPOcNYTfivK/hvjHm0frEaKIjajLp8h/L9LvReheCKdmRdPzkE8e7ktwjMUxAccoHFZrfrU0NxcMWHfVlKQvrIoH/ziULZcisHL3o19vtYoQTxjKlnPsrITHPpQ7JJ68YTVagP8BKVJNXUlJSQH+N6KJd9P0MgBtuA+nb1lG6gisRX3mwfq1zkZcRiEBRxKw+pJyZIVZKRKwS0AKJYicRyBy7oqWBnHOwxf6eRBkTXgIrMd1EH5yIVJ55OF6M85/xJySBdHyynR49UWznoTImgiR871odekUQffgDcR7MNS2FqJmN67xcFPkkg/yzUA5BFiO9R0my7wgfuTJzLUh7ZXLLpq9cO7T7zwb8PvfRsTjzCJ389fFGFifxnTLH0Whft2i2bzJKcv/LK6ENvNntDgJQAB+G/9f0vJ5XZQsSvE/9xziTkaapihxGUwCjiTAIUJHdgsrlSwC2L5D7nt2OIb8ChG3El/ucuNkKSqkQBgGwXUyjqch2OQiio531e9X3gE1JIdl7DtFTEHksyGuLsNZrk10DQ65/Y0hrnC2cvWwPp0jxZWMJOeD+dTgaahDtLXIrPKMN+zpxVWnNsSb2MHpLNUt6h0t3LRpGE6Pmnbnzp1R45gWEBYAwXQD/r/+J8zL7HIk/ucsrWpmCelPAk4gQIHlhF5gHVJGYMWKFXvxJZ204Ro8GG6wW1nEjfaQr7ebV8zx7lI0WLJkuy/FkfShsh712a+o+rwV82e+Hu7/7oVzt2MVpBmwTBmiKzwsRdeYUKY/1qCXXJui/GW2B2zkbSeOjWy6R8HneH93n153e3r52PTAZzVa3oc2bdoU7Q1Vm6UJDW25EpFfjpYA9SqPFofhJOBUAhRYTu0Z1itpBDrfYnosSRmeE8OE+PVRylwdJTzh4Or5sxbAijS1U+QkxQIRVql2XD8KS9XMZRfOfi/Mv+uy+rJZ+5bPr7wYQ4fnwXNTV0CyL3SxBBP8Zy2bP/srG6om2lncMq4awPoixZOcI2bqIAqi9btpWqsAzBF83yocYSujhJsGQ/BEyzupc6HAsR1zui5Cuf82rVRHQEpYRimTwSSQFAIUWEnByEycTgBf6Nfgy/xnSajnmkWLFkVbONEoBsOTj+DikEmZ7RiW+alJWFK9Ycn6RIqcoM8nh/rkHLJE57RIi9hvhSqOg4D7qmGpilJjDB2+iLijVaHNRdQHcSTLyrMF4u3i6qpZJy6tmrM8SjWSFXy3RUbL8KJEVMuMRXrTIHx+H0BgrUmEOggwq3qZJOvwDgQCf8OVnGcYycnP6ncjBSTiJyfMFxQUfBHtkst99HIQqlIwvtArgB4kkCUElCypJ6tJAkkhgDlUJ+GL+5fIbFYcGTYj7bWY6P603bSd5T2E+BPC0mzB9c0QfSl5EIeVE/Fy3qNv5jeXFJyGt/a+CMuWnGs2CkdhxMgdni2Y3bMcQuYdpHlbzdOWLPnSiQkNb8rlHnJL205H+dMwkX0cihmPYyyO4o4iTf9+jJAlsMotCWq+JSurZsj7dDsFk6/lCwQ/wBFe3+chRG5avXr17lRVCOWeiLylcJe8Qk5an67D56k65BHPecaMGRNRf7mOWvj/xg585r+Bz/wr8eRpJ01lZWUfCLzHEVfO9zOctGwFg8HL165duyvkxzMJZBsBCqxs6zHWNykE8DA5AV/ik3BIq45c2VweQ8MyD+C6GYe09mzEIYfzfoeHmNmvfARHdnJIcdu2bePwwDgOD6ttGBr5MFlLQUQuMXZfLMMwDKlGBYWvGIKnxS8CzbqqtIh20Vyv9tmcymG3rtpidv2MBSuG+32Bo4KqT/MJEMMZk+eD/rZAUMtV9y+/oPJgV/wMX8ydO7ekra1tEmrZB9bKDZjvl5YJ/fLzhLXbxkMMlcNqtbW8vPxDu1ZVG8gULNkwBnmPRt676urqPkji3Cur4hX8T07A/6MU21sg6NbijJdX6UiABEiABEiABEiABEiABEiABEiABEiABEiABEiABEiABEiABEiABEiABEiABEiABEiABEiABEiABEiABEiABEiABEiABEiABEiABEiABEiABEiABEiABEiABEiABEiABEiABEiABEiABEiABEiABEiABEiABEiABEiABEiABEiABEiABEiABEiABEiABEiABEiABEiABEiABEiABEiABEiABEiABEiABEiABEiABEiABEiABEiABEiABEiABEiABEiABEiABEiABEiABEiABEiABEiABEiABEiABEiABEiABEiABEiABEiABEiABEiABEiABEiABEiABEiABEiABEiABEiABEiABEiABEiABEiABEiABEiABEiABEiABEiABEiABEiABEiABEiABEiABEiABEiABEiABEiABEiABEiABEiABEiABEiABEiABEiABEiABEiABEiABEiABEiABEiABEiABEiABEiABEiABEiABEiABEiABEiABEiABEiABEiABEiABEiABEiABEiABEiABEiABEiABEiABEiABEiABEiABEiABEiABEiABEiABEiABEiABEiABEiABEiABEiABEiABEiABEiABEiABEiABEiABEiABEiABEiABEiABEiABEiABEiABEiABEiABEiABEiABEiABEiABEiABEiABEiABEiABEiABEiABEiABEiABEiABEiABEiABEiABEiABEiABEiABEiABEiABEiABEiABEiABEiABEiABEiABEiABEiABEiABEiABEiABEiABEiABEiABEiABEiABEiABEiABEiABEiABEiABEiABEiABEiABEiABEiABEiABEiABEiABEiABEiABEiABEiABEiABEiABEiABEiABEiABEiABEiABEiABEiABEiABEiABEiABEiABEiABEiABEiABEiABEiABEiABEiABEiABEiABEiABEiABEiABEiABEiABEiABEiABEiABEiABEiABEiABEiABEiABEiABEiABEiABEiABEiABEiABEiABEiABEiABEiABEiABEiABEiABEiABEiABEiABEiABEiABEiABEiABEiABEiABEiABEiABEiABEiABEiABEiABEiABEiABEiABEiABEiABEiABEiABEiABEiABEiABEiABEiABEiABEiABEiABEiABEiABEiABEiABEiABEiABEiABEiABEiABEiABEiABEiABEiABEiABEiABEiABEiABEiABEiABEiABEiABEiABEiABEiABEiABEiABEiABEiABEiABEiABEiABEiABEiABEiABEiABEiABEiABEiABEiABEiABEiABEiABEiABEiABEiABEiABEiABEiABEiABEiABEiABEiABEiABEiABEiABEiABEiABEiABEiABEiABEiABEiABEiABEiABEiABEiABEiABEiABEiABEiABEiABEiABEiABEiABEiABEiABEiABEiABEiABEiABEiABEiABEiABEiABEiABEiABEiABEiABEiABEiABEiABEiABEiABEiABEiABEiABEiABEiABEiABEiABEiABEiABEiABEiABEiABEiABEiABEiABEiABEiABEiABEiABEiABEiABEiABEiABEiABEiABEiABEiABEiABEiABEiABEiABEiABEiABEiABEiABEiABEiABEiABEjAGwT+P6ArKXgFqj20AAAAAElFTkSuQmCC;" vertex="1" parent="1">
          <mxGeometry x="170" y="430" width="100" height="100" as="geometry" />
        </mxCell>
        <mxCell id="Ab7Qm6pMcHjsO1RCqllz-6" value="error-pages" style="shape=image;verticalLabelPosition=bottom;labelBackgroundColor=none;verticalAlign=top;aspect=fixed;imageAspect=0;image=https://hsto.org/webt/rm/9y/ww/rm9ywwx3gjv9agwkcmllhsuyo7k.png;fontColor=#000000;" vertex="1" parent="1">
          <mxGeometry x="187" y="590" width="66" height="66" as="geometry" />
        </mxCell>
        <mxCell id="Ab7Qm6pMcHjsO1RCqllz-7" value="nextcloud" style="sketch=0;outlineConnect=0;html=1;whiteSpace=wrap;fontSize=12;fontStyle=0;shape=mxgraph.aws4.group;grIcon=mxgraph.aws4.group_subnet;verticalAlign=top;align=left;spacingLeft=30;dashed=0;fillColor=#f5f5f5;strokeColor=#666666;fontColor=#333333;" vertex="1" parent="1">
          <mxGeometry x="480" y="100" width="380" height="210" as="geometry" />
        </mxCell>
        <mxCell id="Ab7Qm6pMcHjsO1RCqllz-17" style="edgeStyle=orthogonalEdgeStyle;rounded=0;orthogonalLoop=1;jettySize=auto;html=1;exitX=1;exitY=0.5;exitDx=0;exitDy=0;entryX=0.25;entryY=0;entryDx=0;entryDy=0;curved=1;fillColor=#eeeeee;strokeColor=#36393d;" edge="1" parent="1" source="Ab7Qm6pMcHjsO1RCqllz-9" target="Ab7Qm6pMcHjsO1RCqllz-16">
          <mxGeometry relative="1" as="geometry" />
        </mxCell>
        <mxCell id="Ab7Qm6pMcHjsO1RCqllz-9" value="Nextcloud" style="shape=image;verticalLabelPosition=bottom;labelBackgroundColor=#F5F5F5;verticalAlign=top;aspect=fixed;imageAspect=0;image=https://external-content.duckduckgo.com/iu/?u=http%3A%2F%2Fencommun.org%2Fwp-content%2Fuploads%2F2014%2F09%2Flogo_nextcloud.png&amp;f=1&amp;nofb=1&amp;ipt=2155e802f18eab186947a5438bd7ffca3b76233f74c3ec9d435160d84ca46539&amp;ipo=images;imageBackground=none;fontColor=#000000;" vertex="1" parent="1">
          <mxGeometry x="430" y="129" width="90" height="90" as="geometry" />
        </mxCell>
        <mxCell id="Ab7Qm6pMcHjsO1RCqllz-12" style="edgeStyle=orthogonalEdgeStyle;rounded=0;orthogonalLoop=1;jettySize=auto;html=1;exitX=0.92;exitY=0.5;exitDx=0;exitDy=0;exitPerimeter=0;entryX=0;entryY=0.5;entryDx=0;entryDy=0;fillColor=#eeeeee;strokeColor=#36393d;" edge="1" parent="1" source="Ab7Qm6pMcHjsO1RCqllz-11" target="Ab7Qm6pMcHjsO1RCqllz-4">
          <mxGeometry relative="1" as="geometry" />
        </mxCell>
        <mxCell id="Ab7Qm6pMcHjsO1RCqllz-11" value="Client" style="verticalLabelPosition=bottom;verticalAlign=top;align=center;strokeColor=#006EAF;fillColor=#1ba1e2;shape=mxgraph.azure.laptop;pointerEvents=1;fontColor=#000000;" vertex="1" parent="1">
          <mxGeometry x="30" y="465" width="50" height="30" as="geometry" />
        </mxCell>
        <mxCell id="Ab7Qm6pMcHjsO1RCqllz-15" style="edgeStyle=orthogonalEdgeStyle;rounded=0;orthogonalLoop=1;jettySize=auto;html=1;exitX=1;exitY=0.75;exitDx=0;exitDy=0;entryX=0.25;entryY=0;entryDx=0;entryDy=0;curved=1;fillColor=#eeeeee;strokeColor=#36393d;" edge="1" parent="1" source="Ab7Qm6pMcHjsO1RCqllz-9" target="Ab7Qm6pMcHjsO1RCqllz-27">
          <mxGeometry relative="1" as="geometry" />
        </mxCell>
        <mxCell id="Ab7Qm6pMcHjsO1RCqllz-16" value="Redis" style="shape=image;verticalLabelPosition=bottom;labelBackgroundColor=none;verticalAlign=top;aspect=fixed;imageAspect=0;image=https://external-content.duckduckgo.com/iu/?u=https%3A%2F%2Fblog.pleets.org%2Fimg%2Farticles%2Fredis-icon.png&amp;f=1&amp;nofb=1&amp;ipt=d54ab602b48714aa7def30fb7de29ad4b69f96ceb4ea0bf580e8ab8bdafa74ba&amp;ipo=images;fontColor=#000000;spacing=-2;" vertex="1" parent="1">
          <mxGeometry x="680" y="214" width="74.5" height="74.5" as="geometry" />
        </mxCell>
        <mxCell id="Ab7Qm6pMcHjsO1RCqllz-18" value="notify_push" style="shape=image;verticalLabelPosition=bottom;labelBackgroundColor=none;verticalAlign=top;aspect=fixed;imageAspect=0;image=https://external-content.duckduckgo.com/iu/?u=http%3A%2F%2Fencommun.org%2Fwp-content%2Fuploads%2F2014%2F09%2Flogo_nextcloud.png&amp;f=1&amp;nofb=1&amp;ipt=2155e802f18eab186947a5438bd7ffca3b76233f74c3ec9d435160d84ca46539&amp;ipo=images;imageBackground=none;fontColor=#000000;spacing=0;" vertex="1" parent="1">
          <mxGeometry x="783" y="226" width="58.5" height="58.5" as="geometry" />
        </mxCell>
        <mxCell id="Ab7Qm6pMcHjsO1RCqllz-23" style="edgeStyle=orthogonalEdgeStyle;rounded=0;orthogonalLoop=1;jettySize=auto;html=1;exitX=0;exitY=0.25;exitDx=0;exitDy=0;entryX=0.75;entryY=0;entryDx=0;entryDy=0;curved=1;fillColor=#eeeeee;strokeColor=#36393d;" edge="1" parent="1" source="Ab7Qm6pMcHjsO1RCqllz-21" target="Ab7Qm6pMcHjsO1RCqllz-27">
          <mxGeometry relative="1" as="geometry" />
        </mxCell>
        <mxCell id="Ab7Qm6pMcHjsO1RCqllz-24" value="" style="edgeStyle=orthogonalEdgeStyle;rounded=0;orthogonalLoop=1;jettySize=auto;html=1;entryX=1;entryY=0.25;entryDx=0;entryDy=0;curved=1;fillColor=#eeeeee;strokeColor=#36393d;exitX=0.5;exitY=0;exitDx=0;exitDy=0;" edge="1" parent="1" source="Ab7Qm6pMcHjsO1RCqllz-18" target="Ab7Qm6pMcHjsO1RCqllz-9">
          <mxGeometry relative="1" as="geometry">
            <mxPoint x="849" y="230" as="sourcePoint" />
            <mxPoint x="520" y="153" as="targetPoint" />
          </mxGeometry>
        </mxCell>
        <mxCell id="Ab7Qm6pMcHjsO1RCqllz-26" style="edgeStyle=orthogonalEdgeStyle;rounded=0;orthogonalLoop=1;jettySize=auto;html=1;exitX=0;exitY=0.75;exitDx=0;exitDy=0;entryX=0.75;entryY=0;entryDx=0;entryDy=0;curved=1;fillColor=#eeeeee;strokeColor=#36393d;" edge="1" parent="1" source="Ab7Qm6pMcHjsO1RCqllz-21" target="Ab7Qm6pMcHjsO1RCqllz-16">
          <mxGeometry relative="1" as="geometry" />
        </mxCell>
        <mxCell id="Ab7Qm6pMcHjsO1RCqllz-21" value="cron" style="shape=image;verticalLabelPosition=bottom;labelBackgroundColor=none;verticalAlign=top;aspect=fixed;imageAspect=0;image=https://external-content.duckduckgo.com/iu/?u=http%3A%2F%2Fencommun.org%2Fwp-content%2Fuploads%2F2014%2F09%2Flogo_nextcloud.png&amp;f=1&amp;nofb=1&amp;ipt=2155e802f18eab186947a5438bd7ffca3b76233f74c3ec9d435160d84ca46539&amp;ipo=images;imageBackground=none;fontColor=#000000;spacing=-10;" vertex="1" parent="1">
          <mxGeometry x="783" y="100" width="58.5" height="58.5" as="geometry" />
        </mxCell>
        <mxCell id="Ab7Qm6pMcHjsO1RCqllz-27" value="Database" style="shape=image;verticalLabelPosition=bottom;labelBackgroundColor=none;verticalAlign=top;aspect=fixed;imageAspect=0;image=https://external-content.duckduckgo.com/iu/?u=https%3A%2F%2Ftse1.mm.bing.net%2Fth%3Fid%3DOIP.TL-NrthBxVBXtJ7rerXGEQHaHa%26pid%3DApi&amp;f=1&amp;ipt=1228f109b12abf4c66b4d59bf269dbef3b202b7e2fe5369c2977ea5fc6abc2df&amp;ipo=images;fontColor=#000000;spacing=0;" vertex="1" parent="1">
          <mxGeometry x="580" y="217" width="69.5" height="69.5" as="geometry" />
        </mxCell>
        <mxCell id="Ab7Qm6pMcHjsO1RCqllz-30" value="monitoring" style="sketch=0;outlineConnect=0;html=1;whiteSpace=wrap;fontSize=12;fontStyle=0;shape=mxgraph.aws4.group;grIcon=mxgraph.aws4.group_subnet;verticalAlign=top;align=left;spacingLeft=30;dashed=0;fillColor=#f5f5f5;strokeColor=#666666;fontColor=#333333;" vertex="1" parent="1">
          <mxGeometry x="480" y="320" width="380" height="210" as="geometry" />
        </mxCell>
        <mxCell id="Ab7Qm6pMcHjsO1RCqllz-31" value="..." style="outlineConnect=0;html=1;whiteSpace=wrap;fontSize=12;fontStyle=0;shape=mxgraph.aws4.group;grIcon=mxgraph.aws4.group_subnet;verticalAlign=top;align=left;spacingLeft=30;dashed=1;fillColor=#f5f5f5;strokeColor=#B3B3B3;fontColor=#333333;" vertex="1" parent="1">
          <mxGeometry x="480" y="540" width="380" height="210" as="geometry" />
        </mxCell>
        <mxCell id="Ab7Qm6pMcHjsO1RCqllz-35" style="edgeStyle=orthogonalEdgeStyle;rounded=0;orthogonalLoop=1;jettySize=auto;html=1;exitX=1;exitY=0.5;exitDx=0;exitDy=0;entryX=0;entryY=0.5;entryDx=0;entryDy=0;fillColor=#eeeeee;strokeColor=#36393d;curved=1;" edge="1" parent="1" source="Ab7Qm6pMcHjsO1RCqllz-32" target="Ab7Qm6pMcHjsO1RCqllz-34">
          <mxGeometry relative="1" as="geometry" />
        </mxCell>
        <mxCell id="Ab7Qm6pMcHjsO1RCqllz-32" value="" style="shape=image;verticalLabelPosition=bottom;labelBackgroundColor=default;verticalAlign=top;aspect=fixed;imageAspect=0;image=https://external-content.duckduckgo.com/iu/?u=https%3A%2F%2Fwww.influxdata.com%2Fwp-content%2Fuploads%2FGrafana-logo-2.png&amp;f=1&amp;nofb=1&amp;ipt=3b5edb5e404c5266c11abcb96e6d1f151f709570a6ee415d33d1c56d4bb7d14f&amp;ipo=images;" vertex="1" parent="1">
          <mxGeometry x="425" y="375" width="100" height="100" as="geometry" />
        </mxCell>
        <mxCell id="Ab7Qm6pMcHjsO1RCqllz-34" value="" style="shape=image;verticalLabelPosition=bottom;labelBackgroundColor=default;verticalAlign=top;aspect=fixed;imageAspect=0;image=https://external-content.duckduckgo.com/iu/?u=https%3A%2F%2Fwww.yusufsezer.com.tr%2Fdosyalar%2F2021%2F07%2Fprometheus.png&amp;f=1&amp;nofb=1&amp;ipt=3033c6cf7ce3a4d9342dabae14bc3d5d5a9a194a2b764ada057a8e2b9af76a1b&amp;ipo=images;" vertex="1" parent="1">
          <mxGeometry x="730" y="385" width="80" height="80" as="geometry" />
        </mxCell>
      </root>
    </mxGraphModel>
  </diagram>
</mxfile>
